<svg width="31" height="28" viewBox="0 0 31 28" fill="none" xmlns="http://www.w3.org/2000/svg">
<path fill-rule="evenodd" clip-rule="evenodd" d="M15.3703 4.01041C12.2031 4.01041 9.65901 6.40523 9.65901 9.3867C9.65901 12.369 12.2028 14.7641 15.3703 14.7641C18.5378 14.7641 21.0816 12.369 21.0816 9.3867C21.0816 6.40523 18.5376 4.01041 15.3703 4.01041ZM15.3703 5.76041C17.5108 5.76041 19.2226 7.37172 19.2226 9.3867C19.2226 11.4026 17.511 13.0141 15.3703 13.0141C13.2296 13.0141 11.5181 11.4026 11.5181 9.3867C11.5181 7.37172 13.2298 5.76041 15.3703 5.76041ZM8.37067 5.10926C8.88403 5.10926 9.30019 5.50101 9.30019 5.98426C9.30019 6.46751 8.88403 6.85926 8.37067 6.85926C6.89785 6.85926 5.70335 7.9832 5.70335 9.36905C5.70335 10.7549 6.89785 11.8788 8.37067 11.8788C8.88403 11.8788 9.30019 12.2706 9.30019 12.7538C9.30019 13.2371 8.88403 13.6288 8.37067 13.6288C5.87131 13.6288 3.84431 11.7216 3.84431 9.36905C3.84431 7.01653 5.87131 5.10926 8.37067 5.10926ZM26.9079 9.36905C26.9079 7.01653 24.8809 5.10926 22.3815 5.10926C21.8682 5.10926 21.452 5.50101 21.452 5.98426C21.452 6.46751 21.8682 6.85926 22.3815 6.85926C23.8544 6.85926 25.0489 7.9832 25.0489 9.36905C25.0489 10.7549 23.8544 11.8788 22.3815 11.8788C21.8682 11.8788 21.452 12.2706 21.452 12.7538C21.452 13.2371 21.8682 13.6288 22.3815 13.6288C24.8809 13.6288 26.9079 11.7216 26.9079 9.36905ZM25.9769 15.8141C25.3818 15.6877 24.7458 15.6013 24.0991 15.5593C23.5869 15.526 23.1431 15.8899 23.1078 16.372C23.0725 16.8541 23.459 17.2719 23.9712 17.3051C24.5246 17.3411 25.0669 17.4148 25.5942 17.5265C26.4143 17.678 26.9489 17.929 27.0816 18.1908C27.1814 18.3884 27.1814 18.6207 27.0807 18.8207C26.9497 19.0798 26.4195 19.3296 25.6111 19.4861C25.1083 19.5834 24.7844 20.0461 24.8878 20.5194C24.9912 20.9927 25.4827 21.2976 25.9855 21.2002C27.3218 20.9416 28.3007 20.4803 28.7599 19.5715C29.1004 18.8958 29.1004 18.1121 28.76 17.4382C28.2975 16.5259 27.3018 16.0583 25.9769 15.8141ZM7.64442 16.372C7.6091 15.8899 7.16529 15.526 6.65315 15.5593C6.00646 15.6013 5.37046 15.6877 4.74981 15.8192L4.49395 15.8701C3.3195 16.1227 2.4235 16.587 1.99343 17.4381C1.65154 18.1114 1.65154 18.8965 1.99379 19.5722C2.45102 20.4801 3.42984 20.9415 4.76667 21.2002C5.26951 21.2976 5.76097 20.9927 5.86437 20.5194C5.96777 20.0461 5.64396 19.5834 5.14112 19.4861C4.33295 19.3297 3.80327 19.08 3.67274 18.8208C3.57104 18.62 3.57104 18.3891 3.67149 18.1912C3.80409 17.9288 4.3382 17.6779 5.13248 17.5315L5.54548 17.4519C5.95717 17.3803 6.366 17.3321 6.78105 17.3051C7.2932 17.2719 7.67974 16.8541 7.64442 16.372ZM6.97899 20.0486C6.97899 17.265 10.0377 16.2861 15.3703 16.2861L15.7481 16.2878C20.8579 16.333 23.7616 17.3141 23.7616 20.0283C23.7616 22.6786 20.986 23.6934 16.1164 23.7841L15.3703 23.7908C10.0254 23.7908 6.97899 22.8291 6.97899 20.0486ZM21.9026 20.0283C21.9026 18.7327 19.6958 18.0361 15.3703 18.0361C11.049 18.0361 8.83803 18.7437 8.83803 20.0486C8.83803 21.3444 11.0441 22.0408 15.3703 22.0408C19.6903 22.0408 21.9026 21.3326 21.9026 20.0283Z" fill="#DDEFFA"/>
</svg>
