<svg width="30" height="28" viewBox="0 0 30 28" fill="none" xmlns="http://www.w3.org/2000/svg">
<path fill-rule="evenodd" clip-rule="evenodd" d="M20.4802 2.33334H9.67595C5.48028 2.33334 2.68445 5.15656 2.68445 9.20871V18.7913C2.68445 22.8473 5.47292 25.6667 9.67595 25.6667H20.4802C24.6833 25.6667 27.4717 22.8473 27.4717 18.7913V9.20871C27.4717 5.15277 24.6833 2.33334 20.4802 2.33334ZM9.67595 3.96125H20.4802C23.6995 3.96125 25.7424 6.02686 25.7424 9.20871V18.7913C25.7424 21.9732 23.6995 24.0388 20.4802 24.0388H9.67595C6.45673 24.0388 4.41379 21.9732 4.41379 18.7913V9.20871C4.41379 6.03109 6.46355 3.96125 9.67595 3.96125ZM15.9788 8.37543C15.9215 7.97814 15.5598 7.67193 15.122 7.67193C14.6445 7.67193 14.2573 8.03635 14.2573 8.48588V19.4935L14.2652 19.6039C14.3225 20.0012 14.6843 20.3074 15.122 20.3074C15.5996 20.3074 15.9867 19.943 15.9867 19.4935V8.48588L15.9788 8.37543ZM10.5986 11.9379C10.5413 11.5406 10.1796 11.2344 9.74183 11.2344C9.26428 11.2344 8.87715 11.5988 8.87715 12.0484V19.4935L8.88505 19.6039C8.9423 20.0012 9.30408 20.3074 9.74183 20.3074C10.2194 20.3074 10.6065 19.943 10.6065 19.4935V12.0484L10.5986 11.9379ZM20.4144 15.1687C20.8521 15.1687 21.2139 15.4749 21.2711 15.8722L21.279 15.9826V19.4935C21.279 19.943 20.8919 20.3074 20.4144 20.3074C19.9766 20.3074 19.6148 20.0012 19.5576 19.6039L19.5497 19.4935V15.9826C19.5497 15.5331 19.9368 15.1687 20.4144 15.1687Z" fill="#ADB3CC"/>
</svg>
