<svg width="31" height="28" viewBox="0 0 31 28" fill="none" xmlns="http://www.w3.org/2000/svg">
<path fill-rule="evenodd" clip-rule="evenodd" d="M15.62 4.67228L15.2653 4.66666C10.1332 4.66666 5.50807 8.07692 2.94464 13.6568C2.84398 13.8759 2.84398 14.1241 2.94464 14.3432L3.12227 14.7196C5.65323 19.942 10.027 23.1751 14.9056 23.3277L15.2603 23.3333C20.3924 23.3333 25.0175 19.9231 27.5809 14.3432C27.6829 14.1213 27.6815 13.8698 27.5772 13.6489L27.4046 13.2832C24.8675 8.05105 20.4919 4.8247 15.62 4.67228ZM15.2739 6.40431L15.5701 6.41031L15.901 6.42652C19.8635 6.69063 23.5077 9.45644 25.7094 13.9989L25.6979 14.027C23.441 18.6672 19.6711 21.4495 15.5836 21.5891L15.2677 21.5936L14.9491 21.5896L14.6191 21.5734C10.7796 21.3174 7.2396 18.7068 5.02457 14.4196L4.81494 13.9989L5.009 13.6105C7.3447 9.06866 11.1623 6.4053 15.2739 6.40431ZM15.2622 9.4657C12.5846 9.4657 10.415 11.4953 10.415 14.0002C10.415 16.5042 12.5849 18.5336 15.2622 18.5336C17.9396 18.5336 20.1106 16.5041 20.1106 14.0002C20.1106 11.4954 17.9398 9.4657 15.2622 9.4657ZM15.2622 11.2044C16.9132 11.2044 18.2515 12.4558 18.2515 14.0002C18.2515 15.5436 16.9131 16.7949 15.2622 16.7949C13.6116 16.7949 12.2741 15.5439 12.2741 14.0002C12.2741 12.4555 13.6115 11.2044 15.2622 11.2044Z" fill="#ADB3CC"/>
</svg>
