<svg width="21" height="18" viewBox="0 0 21 18" fill="none" xmlns="http://www.w3.org/2000/svg">
<path fill-rule="evenodd" clip-rule="evenodd" d="M5.6414 0.230209C5.32897 0.0111383 4.88465 0.0354795 4.60153 0.303233L0.269655 4.3999L0.192719 4.48419C-0.0379892 4.7783 -0.0112521 5.19491 0.272259 5.46056L0.361797 5.53298C0.674238 5.75016 1.1168 5.72499 1.39901 5.45811L4.36935 2.64851V14.4507L4.37663 14.5524C4.42938 14.9185 4.76273 15.2007 5.16609 15.2007C5.60611 15.2007 5.96282 14.8649 5.96282 14.4507V2.64864L8.9334 5.45811L9.02258 5.53092C9.33395 5.74945 9.77664 5.72621 10.0602 5.46056C10.372 5.16834 10.3732 4.69347 10.0628 4.3999L5.73088 0.303233L5.72536 0.298731C5.70105 0.276168 5.6752 0.255065 5.64797 0.235573L5.6414 0.230209ZM16.5027 3.44468C16.4499 3.0786 16.1166 2.79645 15.7132 2.79645C15.2732 2.79645 14.9165 3.13223 14.9165 3.54645V15.3481L11.9459 12.539L11.8567 12.4662C11.5453 12.2477 11.1026 12.2709 10.8191 12.5366C10.5073 12.8288 10.5061 13.3036 10.8165 13.5972L15.1484 17.6939L15.1539 17.6984C15.1782 17.721 15.2041 17.7421 15.2313 17.7616L15.2379 17.7669C15.5503 17.986 15.9946 17.9616 16.2778 17.6939L20.6096 13.5972L20.6866 13.5129C20.9173 13.2188 20.8905 12.8022 20.607 12.5366C20.2952 12.2443 19.7907 12.2454 19.4803 12.539L16.5099 15.3472V3.54645L16.5027 3.44468Z" fill="#DDEFFA"/>
</svg>
