<svg width="24" height="25" viewBox="0 0 24 25" fill="none" xmlns="http://www.w3.org/2000/svg">
<path d="M9.34933 15.1327C5.38553 15.1327 2 15.745 2 18.1924C2 20.6416 5.364 21.275 9.34933 21.275C13.3131 21.275 16.6987 20.6627 16.6987 18.2154C16.6987 15.7661 13.3347 15.1327 9.34933 15.1327Z" fill="#ADB3CC"/>
<path opacity="0.4" d="M9.34933 12.7998C12.049 12.7998 14.2124 10.6812 14.2124 8.03741C14.2124 5.39364 12.049 3.27499 9.34933 3.27499C6.6507 3.27499 4.48631 5.39364 4.48631 8.03741C4.48631 10.6812 6.6507 12.7998 9.34933 12.7998Z" fill="#ADB3CC"/>
<path opacity="0.4" d="M16.1734 8.12375C16.1734 9.47007 15.7605 10.7263 15.0364 11.7698C14.9611 11.8771 15.0276 12.0218 15.1587 12.0448C15.3407 12.0745 15.5276 12.0928 15.7184 12.0966C17.6167 12.1455 19.3202 10.9486 19.7908 9.14619C20.4885 6.47176 18.4415 4.07043 15.8339 4.07043C15.5511 4.07043 15.2801 4.09918 15.0159 4.15188C14.9797 4.15955 14.9405 4.1768 14.921 4.20746C14.8955 4.24675 14.9141 4.29754 14.9396 4.33107C15.7233 5.40717 16.1734 6.71707 16.1734 8.12375Z" fill="#ADB3CC"/>
<path d="M21.7791 15.4443C21.4317 14.719 20.5932 14.2216 19.3173 13.9773C18.7155 13.8335 17.0854 13.6294 15.5697 13.6582C15.5472 13.6611 15.5345 13.6764 15.5325 13.686C15.5296 13.7013 15.5364 13.7243 15.5658 13.7406C16.2664 14.0798 18.9738 15.5555 18.6333 18.6678C18.6186 18.8039 18.7292 18.9189 18.8672 18.8997C19.5335 18.8068 21.2478 18.4455 21.7791 17.3225C22.0736 16.7284 22.0736 16.0384 21.7791 15.4443Z" fill="#ADB3CC"/>
</svg>
