<svg width="20" height="21" viewBox="0 0 20 21" fill="none" xmlns="http://www.w3.org/2000/svg">
<path opacity="0.4" d="M13.6167 1.94153H6.39167C3.56667 1.94153 1.66667 3.92486 1.66667 6.87486V13.6832C1.66667 16.6249 3.56667 18.6082 6.39167 18.6082H13.6167C16.4417 18.6082 18.3333 16.6249 18.3333 13.6832V6.87486C18.3333 3.92486 16.4417 1.94153 13.6167 1.94153Z" fill="#ADB3CC"/>
<path fill-rule="evenodd" clip-rule="evenodd" d="M9.27059 7.09947C9.27059 7.50113 9.59642 7.82863 9.99559 7.82863C10.4064 7.82863 10.7331 7.50113 10.7331 7.09947C10.7331 6.6978 10.4064 6.3703 10.0039 6.3703C9.59975 6.3703 9.27059 6.6978 9.27059 7.09947ZM10.7248 9.74347C10.7248 9.3418 10.3973 9.0143 9.99559 9.0143C9.59392 9.0143 9.26642 9.3418 9.26642 9.74347V13.4268C9.26642 13.8285 9.59392 14.156 9.99559 14.156C10.3973 14.156 10.7248 13.8285 10.7248 13.4268V9.74347Z" fill="#ADB3CC"/>
</svg>
