<svg width="24" height="25" viewBox="0 0 24 25" fill="none" xmlns="http://www.w3.org/2000/svg">
<path fill-rule="evenodd" clip-rule="evenodd" d="M3 17.145V9.53198H21V17.206C21 20.345 19.0241 22.275 15.8628 22.275H8.12733C4.99561 22.275 3 20.305 3 17.145ZM7.95938 14.685C7.50494 14.706 7.12953 14.345 7.10977 13.886C7.10977 13.426 7.46542 13.046 7.91987 13.025C8.36443 13.025 8.72997 13.376 8.73985 13.825C8.7596 14.286 8.40395 14.666 7.95938 14.685ZM12.0198 14.685C11.5653 14.706 11.1899 14.345 11.1701 13.886C11.1701 13.426 11.5258 13.046 11.9802 13.025C12.4248 13.025 12.7903 13.376 12.8002 13.825C12.82 14.286 12.4643 14.666 12.0198 14.685ZM16.0505 18.365C15.596 18.355 15.2305 17.975 15.2305 17.515C15.2206 17.055 15.5862 16.676 16.0406 16.666H16.0505C16.5148 16.666 16.8902 17.046 16.8902 17.515C16.8902 17.985 16.5148 18.365 16.0505 18.365ZM11.1701 17.515C11.1899 17.975 11.5653 18.336 12.0198 18.315C12.4643 18.296 12.82 17.916 12.8002 17.456C12.7903 17.006 12.4248 16.655 11.9802 16.655C11.5258 16.676 11.1701 17.055 11.1701 17.515ZM7.09989 17.515C7.11965 17.975 7.49506 18.336 7.94951 18.315C8.39407 18.296 8.74973 17.916 8.72997 17.456C8.72009 17.006 8.35456 16.655 7.90999 16.655C7.45554 16.676 7.09989 17.055 7.09989 17.515ZM15.2404 13.876C15.2404 13.416 15.596 13.046 16.0505 13.036C16.4951 13.036 16.8507 13.395 16.8705 13.836C16.8804 14.296 16.5247 14.676 16.0801 14.685C15.6257 14.695 15.2503 14.345 15.2404 13.886V13.876Z" fill="#ADB3CC"/>
<path opacity="0.4" d="M3.00336 9.53189C3.0162 8.94489 3.0656 7.77989 3.15847 7.40489C3.63267 5.29589 5.24299 3.95589 7.54485 3.76489H16.4559C18.738 3.96589 20.3681 5.31489 20.8423 7.40489C20.9342 7.76989 20.9836 8.94389 20.9964 9.53189H3.00336Z" fill="#ADB3CC"/>
<path d="M8.30486 6.86499C8.73955 6.86499 9.06556 6.53599 9.06556 6.09499V3.04599C9.06556 2.60499 8.73955 2.27499 8.30486 2.27499C7.87017 2.27499 7.54416 2.60499 7.54416 3.04599V6.09499C7.54416 6.53599 7.87017 6.86499 8.30486 6.86499Z" fill="#ADB3CC"/>
<path d="M15.6949 6.86499C16.1197 6.86499 16.4556 6.53599 16.4556 6.09499V3.04599C16.4556 2.60499 16.1197 2.27499 15.6949 2.27499C15.2603 2.27499 14.9342 2.60499 14.9342 3.04599V6.09499C14.9342 6.53599 15.2603 6.86499 15.6949 6.86499Z" fill="#ADB3CC"/>
</svg>
