<svg width="24" height="25" viewBox="0 0 24 25" fill="none" xmlns="http://www.w3.org/2000/svg">
<path opacity="0.4" d="M16.0755 2.27499H19.4615C20.8637 2.27499 22 3.42085 22 4.83496V8.24952C22 9.66363 20.8637 10.8095 19.4615 10.8095H16.0755C14.6732 10.8095 13.537 9.66363 13.537 8.24952V4.83496C13.537 3.42085 14.6732 2.27499 16.0755 2.27499Z" fill="#42BBFF"/>
<path fill-rule="evenodd" clip-rule="evenodd" d="M4.53852 2.27499H7.92449C9.32676 2.27499 10.463 3.42085 10.463 4.83496V8.24952C10.463 9.66363 9.32676 10.8095 7.92449 10.8095H4.53852C3.13626 10.8095 2 9.66363 2 8.24952V4.83496C2 3.42085 3.13626 2.27499 4.53852 2.27499ZM4.53852 13.7405H7.92449C9.32676 13.7405 10.463 14.8864 10.463 16.3005V19.715C10.463 21.1282 9.32676 22.275 7.92449 22.275H4.53852C3.13626 22.275 2 21.1282 2 19.715V16.3005C2 14.8864 3.13626 13.7405 4.53852 13.7405ZM19.4615 13.7405H16.0755C14.6732 13.7405 13.537 14.8864 13.537 16.3005V19.715C13.537 21.1282 14.6732 22.275 16.0755 22.275H19.4615C20.8637 22.275 22 21.1282 22 19.715V16.3005C22 14.8864 20.8637 13.7405 19.4615 13.7405Z" fill="#42BBFF"/>
</svg>
