<svg width="24" height="25" viewBox="0 0 24 25" fill="none" xmlns="http://www.w3.org/2000/svg">
<path opacity="0.4" d="M11.776 22.1124C9.49294 20.7023 7.37064 19.0395 5.4479 17.1546C4.09052 15.8088 3.05388 14.1655 2.41718 12.3503C1.27955 8.81022 2.60382 4.76447 6.30113 3.56339C8.25264 2.95052 10.3751 3.32675 12.0071 4.57483C13.6397 3.32814 15.7614 2.95204 17.713 3.56339C21.4103 4.76447 22.7435 8.81022 21.6058 12.3503C20.9743 14.1637 19.9438 15.8069 18.5929 17.1546C16.6684 19.0375 14.5463 20.7 12.2648 22.1124L12.016 22.275L11.776 22.1124Z" fill="#ADB3CC"/>
<path d="M12.0109 22.275L11.776 22.1124C9.49013 20.7024 7.36487 19.0397 5.43902 17.1546C4.0752 15.8106 3.03238 14.1672 2.39052 12.3503C1.26177 8.81023 2.58605 4.76447 6.28335 3.56339C8.23486 2.95053 10.3853 3.32704 12.0109 4.58557V22.275Z" fill="#ADB3CC"/>
<path d="M18.2304 10.2742C18.0296 10.2613 17.8425 10.1609 17.7131 9.99656C17.5836 9.83223 17.5232 9.61839 17.5459 9.40515C17.5677 8.7028 17.168 8.0635 16.5517 7.81476C16.1609 7.70809 15.9243 7.28486 16.022 6.86748C16.1148 6.45681 16.4993 6.20146 16.8858 6.2939C16.9346 6.30199 16.9816 6.31967 17.0244 6.34604C18.2601 6.82157 19.0601 8.1014 18.9965 9.50075C18.9944 9.71284 18.9117 9.91497 18.7673 10.0608C18.6229 10.2066 18.4291 10.2837 18.2304 10.2742Z" fill="#ADB3CC"/>
</svg>
