<svg width="20" height="21" viewBox="0 0 20 21" fill="none" xmlns="http://www.w3.org/2000/svg">
<path d="M10.01 12.6334C8.67292 12.6334 7.59135 11.5918 7.59135 10.2834C7.59135 8.97511 8.67292 7.92511 10.01 7.92511C11.347 7.92511 12.4031 8.97511 12.4031 10.2834C12.4031 11.5918 11.347 12.6334 10.01 12.6334Z" fill="#ADB3CC"/>
<path opacity="0.4" d="M17.6917 12.2501C17.5299 12.0001 17.2999 11.7501 17.0019 11.5918C16.7634 11.4751 16.6101 11.2834 16.4739 11.0584C16.0395 10.3418 16.295 9.40011 17.0189 8.97511C17.8705 8.50011 18.1431 7.44177 17.6491 6.61677L17.0785 5.63344C16.5931 4.80844 15.5285 4.51677 14.6854 5.00011C13.936 5.40011 12.9737 5.13344 12.5393 4.42511C12.4031 4.19177 12.3264 3.94177 12.3434 3.69177C12.369 3.36677 12.2668 3.05844 12.1135 2.80844C11.7984 2.29177 11.2278 1.94177 10.5976 1.94177H9.3968C8.77511 1.95844 8.20452 2.29177 7.88942 2.80844C7.72761 3.05844 7.63393 3.36677 7.65096 3.69177C7.66799 3.94177 7.59134 4.19177 7.45508 4.42511C7.02075 5.13344 6.05841 5.40011 5.31749 5.00011C4.46586 4.51677 3.40984 4.80844 2.91589 5.63344L2.3453 6.61677C1.85987 7.44177 2.13239 8.50011 2.9755 8.97511C3.69939 9.40011 3.95488 10.3418 3.52906 11.0584C3.38429 11.2834 3.23099 11.4751 2.99254 11.5918C2.70298 11.7501 2.44749 12.0001 2.31123 12.2501C1.99613 12.7668 2.01316 13.4168 2.32826 13.9584L2.91589 14.9584C3.23099 15.4918 3.81862 15.8251 4.43179 15.8251C4.72135 15.8251 5.062 15.7418 5.33452 15.5751C5.54743 15.4334 5.80292 15.3834 6.08396 15.3834C6.92707 15.3834 7.63393 16.0751 7.65096 16.9001C7.65096 17.8584 8.43446 18.6084 9.42235 18.6084H10.5806C11.5599 18.6084 12.3434 17.8584 12.3434 16.9001C12.369 16.0751 13.0758 15.3834 13.919 15.3834C14.1915 15.3834 14.447 15.4334 14.6684 15.5751C14.9409 15.7418 15.2731 15.8251 15.5711 15.8251C16.1758 15.8251 16.7634 15.4918 17.0785 14.9584L17.6747 13.9584C17.9812 13.4001 18.0068 12.7668 17.6917 12.2501Z" fill="#ADB3CC"/>
</svg>
