<svg width="20" height="21" viewBox="0 0 20 21" fill="none" xmlns="http://www.w3.org/2000/svg">
<path opacity="0.4" d="M17.7758 6.47715C17.4267 6.25719 16.9975 6.23773 16.6317 6.42385L15.3966 7.04737C14.94 7.27749 14.6566 7.7428 14.6566 8.26057V13.1218C14.6566 13.6396 14.94 14.1041 15.3966 14.3359L16.6308 14.9585C16.7983 15.0448 16.9775 15.0863 17.1567 15.0863C17.3717 15.0863 17.585 15.0254 17.7758 14.9061C18.125 14.687 18.3333 14.3071 18.3333 13.8909V7.49323C18.3333 7.07698 18.125 6.69712 17.7758 6.47715Z" fill="#ADB3CC"/>
<path d="M9.92092 16.9417H5.0942C3.07585 16.9417 1.66667 15.55 1.66667 13.5576V7.82581C1.66667 5.83257 3.07585 4.44171 5.0942 4.44171H9.92092C11.9393 4.44171 13.3485 5.83257 13.3485 7.82581V13.5576C13.3485 15.55 11.9393 16.9417 9.92092 16.9417Z" fill="#ADB3CC"/>
</svg>
