<svg width="24" height="25" viewBox="0 0 24 25" fill="none" xmlns="http://www.w3.org/2000/svg">
<path opacity="0.4" d="M2.0002 11.3535C2.0502 13.6915 2.1902 17.6905 2.2102 18.1315C2.2812 19.0745 2.6422 20.0275 3.2042 20.6995C3.9862 21.6425 4.9492 22.0635 6.2922 22.0635C8.1482 22.0735 10.1942 22.0735 12.1812 22.0735C14.1762 22.0735 16.1122 22.0735 17.7472 22.0635C19.0712 22.0635 20.0642 21.6315 20.8362 20.6995C21.3982 20.0275 21.7592 19.0645 21.8102 18.1315C21.8302 17.7605 21.9302 13.4195 21.9902 11.3535H2.0002Z" fill="#ADB3CC"/>
<path d="M11.2454 15.6592V16.9532C11.2454 17.3672 11.5814 17.7032 11.9954 17.7032C12.4094 17.7032 12.7454 17.3672 12.7454 16.9532V15.6592C12.7454 15.2452 12.4094 14.9092 11.9954 14.9092C11.5814 14.9092 11.2454 15.2452 11.2454 15.6592Z" fill="#ADB3CC"/>
<path fill-rule="evenodd" clip-rule="evenodd" d="M10.2113 14.8314C10.1113 15.1944 9.7623 15.4264 9.3843 15.3764C6.8333 15.0204 4.3953 14.1154 2.3373 12.7564C2.1263 12.6184 2.0003 12.3824 2.0003 12.1304V8.66439C2.0003 6.56439 3.7123 4.85639 5.8173 4.85639H7.7843C7.9723 3.40439 9.2023 2.27539 10.7043 2.27539H13.2863C14.7873 2.27539 16.0183 3.40439 16.2063 4.85639H18.1833C20.2823 4.85639 21.9903 6.56439 21.9903 8.66439V12.1304C21.9903 12.3824 21.8633 12.6174 21.6543 12.7564C19.5923 14.1214 17.1443 15.0304 14.5763 15.3854C14.5413 15.3904 14.5073 15.3924 14.4733 15.3924C14.1343 15.3924 13.8313 15.1634 13.7463 14.8274C13.5443 14.0314 12.8213 13.4744 11.9903 13.4744C11.1483 13.4744 10.4333 14.0194 10.2113 14.8314ZM13.2863 3.77539H10.7043C10.0313 3.77539 9.4693 4.23539 9.3013 4.85639H14.6883C14.5203 4.23539 13.9583 3.77539 13.2863 3.77539Z" fill="#ADB3CC"/>
</svg>
