<svg width="500" height="172" viewBox="0 0 500 172" fill="none" xmlns="http://www.w3.org/2000/svg">
<rect x="33.7277" y="0.400818" width="1.10398" height="170.421" fill="#131830"/>
<rect x="120.942" y="0.400818" width="1.10398" height="170.421" fill="#131830"/>
<rect x="208.157" y="0.400818" width="1.10398" height="170.421" fill="#131830"/>
<rect x="295.371" y="0.400818" width="1.10398" height="170.421" fill="#131830"/>
<rect x="382.586" y="0.400818" width="1.10398" height="170.421" fill="#131830"/>
<rect x="0.608154" y="170.822" width="499" height="1.02663" fill="#131830"/>
<rect x="0.608154" y="0.400818" width="499" height="1.02663" fill="#131830"/>
<path d="M334.49 146.223C334.49 146.829 334.348 147.344 334.066 147.768C333.788 148.187 333.41 148.506 332.931 148.725C332.457 148.944 331.922 149.053 331.325 149.053C330.728 149.053 330.19 148.944 329.711 148.725C329.233 148.506 328.855 148.187 328.577 147.768C328.299 147.344 328.16 146.829 328.16 146.223C328.16 145.827 328.235 145.464 328.385 145.136C328.54 144.804 328.757 144.514 329.035 144.268C329.317 144.022 329.65 143.833 330.033 143.701C330.42 143.564 330.846 143.496 331.311 143.496C331.922 143.496 332.466 143.614 332.945 143.851C333.423 144.084 333.799 144.405 334.073 144.815C334.351 145.225 334.49 145.695 334.49 146.223ZM333.218 146.196C333.218 145.827 333.138 145.501 332.979 145.218C332.819 144.931 332.596 144.708 332.309 144.548C332.022 144.389 331.689 144.309 331.311 144.309C330.924 144.309 330.589 144.389 330.306 144.548C330.028 144.708 329.812 144.931 329.657 145.218C329.502 145.501 329.424 145.827 329.424 146.196C329.424 146.579 329.499 146.907 329.65 147.18C329.805 147.449 330.023 147.657 330.306 147.802C330.593 147.944 330.933 148.014 331.325 148.014C331.717 148.014 332.054 147.944 332.336 147.802C332.619 147.657 332.835 147.449 332.986 147.18C333.141 146.907 333.218 146.579 333.218 146.196ZM334.257 141.554C334.257 142.037 334.13 142.473 333.874 142.86C333.619 143.247 333.271 143.553 332.828 143.776C332.386 143.999 331.885 144.111 331.325 144.111C330.755 144.111 330.247 143.999 329.8 143.776C329.358 143.553 329.012 143.247 328.761 142.86C328.51 142.473 328.385 142.037 328.385 141.554C328.385 140.976 328.51 140.483 328.761 140.078C329.016 139.672 329.365 139.362 329.807 139.148C330.249 138.934 330.753 138.827 331.318 138.827C331.887 138.827 332.393 138.934 332.835 139.148C333.277 139.362 333.624 139.672 333.874 140.078C334.13 140.483 334.257 140.976 334.257 141.554ZM332.993 141.575C332.993 141.242 332.922 140.948 332.781 140.693C332.639 140.438 332.443 140.237 332.193 140.091C331.942 139.941 331.65 139.866 331.318 139.866C330.985 139.866 330.693 139.936 330.443 140.078C330.197 140.214 330.003 140.41 329.862 140.666C329.725 140.921 329.657 141.224 329.657 141.575C329.657 141.917 329.725 142.215 329.862 142.47C330.003 142.726 330.199 142.924 330.45 143.065C330.7 143.206 330.992 143.277 331.325 143.277C331.657 143.277 331.947 143.206 332.193 143.065C332.443 142.924 332.639 142.726 332.781 142.47C332.922 142.215 332.993 141.917 332.993 141.575ZM340.245 138.909V148.917H338.981V140.488L336.431 141.418V140.276L340.047 138.909H340.245ZM343.855 141.404V140.878C343.855 140.499 343.937 140.155 344.101 139.845C344.265 139.535 344.5 139.287 344.805 139.1C345.11 138.913 345.473 138.82 345.892 138.82C346.32 138.82 346.685 138.913 346.986 139.1C347.291 139.287 347.526 139.535 347.69 139.845C347.854 140.155 347.936 140.499 347.936 140.878V141.404C347.936 141.773 347.854 142.113 347.69 142.422C347.53 142.732 347.298 142.981 346.993 143.168C346.692 143.354 346.329 143.448 345.906 143.448C345.482 143.448 345.115 143.354 344.805 143.168C344.5 142.981 344.265 142.732 344.101 142.422C343.937 142.113 343.855 141.773 343.855 141.404ZM344.805 140.878V141.404C344.805 141.614 344.844 141.812 344.921 141.999C345.003 142.186 345.126 142.338 345.29 142.457C345.454 142.571 345.66 142.628 345.906 142.628C346.152 142.628 346.355 142.571 346.514 142.457C346.674 142.338 346.792 142.186 346.87 141.999C346.947 141.812 346.986 141.614 346.986 141.404V140.878C346.986 140.663 346.945 140.463 346.863 140.276C346.785 140.085 346.664 139.932 346.5 139.818C346.341 139.7 346.138 139.64 345.892 139.64C345.65 139.64 345.448 139.7 345.284 139.818C345.124 139.932 345.003 140.085 344.921 140.276C344.844 140.463 344.805 140.663 344.805 140.878ZM348.702 147.009V146.476C348.702 146.102 348.784 145.761 348.948 145.451C349.112 145.141 349.346 144.893 349.652 144.706C349.957 144.519 350.319 144.425 350.739 144.425C351.167 144.425 351.532 144.519 351.832 144.706C352.138 144.893 352.372 145.141 352.536 145.451C352.701 145.761 352.783 146.102 352.783 146.476V147.009C352.783 147.383 352.701 147.725 352.536 148.035C352.377 148.345 352.145 148.593 351.839 148.78C351.538 148.967 351.176 149.06 350.752 149.06C350.328 149.06 349.964 148.967 349.659 148.78C349.353 148.593 349.116 148.345 348.948 148.035C348.784 147.725 348.702 147.383 348.702 147.009ZM349.652 146.476V147.009C349.652 147.219 349.69 147.42 349.768 147.611C349.85 147.798 349.973 147.95 350.137 148.069C350.301 148.183 350.506 148.24 350.752 148.24C350.998 148.24 351.201 148.183 351.361 148.069C351.525 147.95 351.646 147.798 351.723 147.611C351.8 147.424 351.839 147.224 351.839 147.009V146.476C351.839 146.262 351.798 146.061 351.716 145.875C351.639 145.688 351.518 145.537 351.354 145.423C351.194 145.305 350.989 145.246 350.739 145.246C350.497 145.246 350.294 145.305 350.13 145.423C349.971 145.537 349.85 145.688 349.768 145.875C349.69 146.061 349.652 146.262 349.652 146.476ZM351.053 140.379L346.193 148.158L345.482 147.707L350.342 139.927L351.053 140.379Z" fill="white"/>
<g filter="url(#filter0_d_1_410)">
<path fill-rule="evenodd" clip-rule="evenodd" d="M312.347 142.076H42.5596H37.7278H33.7278V146.076V146.289V150.289H37.7278H42.5596H312.347C314.556 150.289 316.347 148.499 316.347 146.289V146.076C316.347 143.867 314.556 142.076 312.347 142.076Z" fill="#4072EE"/>
</g>
<g filter="url(#filter1_d_1_410)">
<path fill-rule="evenodd" clip-rule="evenodd" d="M257.148 21.9601H42.5596H37.7278H33.7278V25.9601V26.1732V30.1732H37.7278H42.5596H257.148C259.357 30.1732 261.148 28.3824 261.148 26.1732V25.9601C261.148 23.751 259.357 21.9601 257.148 21.9601Z" fill="#B558F6"/>
</g>
<path d="M277.868 18.8336H277.978V19.9069H277.868C277.198 19.9069 276.638 20.0162 276.187 20.235C275.735 20.4492 275.378 20.7386 275.113 21.1031C274.849 21.4632 274.658 21.8688 274.539 22.3199C274.425 22.7711 274.368 23.2291 274.368 23.694V25.1569C274.368 25.5989 274.421 25.9908 274.526 26.3326C274.63 26.6699 274.774 26.9547 274.956 27.1871C275.138 27.4196 275.344 27.595 275.571 27.7135C275.804 27.832 276.045 27.8912 276.296 27.8912C276.588 27.8912 276.847 27.8365 277.075 27.7272C277.303 27.6132 277.495 27.456 277.65 27.2555C277.809 27.0504 277.93 26.8089 278.012 26.5309C278.094 26.2529 278.135 25.9476 278.135 25.6149C278.135 25.3186 278.098 25.0338 278.026 24.7604C277.953 24.4824 277.841 24.2363 277.691 24.0221C277.54 23.8033 277.351 23.6324 277.123 23.5094C276.9 23.3818 276.633 23.318 276.323 23.318C275.972 23.318 275.644 23.4046 275.339 23.5778C275.038 23.7464 274.79 23.9697 274.594 24.2477C274.402 24.5211 274.293 24.8196 274.266 25.1432L273.596 25.1364C273.66 24.6259 273.778 24.1907 273.951 23.8307C274.129 23.4661 274.348 23.1699 274.608 22.942C274.872 22.7096 275.166 22.541 275.489 22.4362C275.818 22.3268 276.164 22.2721 276.528 22.2721C277.025 22.2721 277.454 22.3655 277.814 22.5524C278.174 22.7392 278.47 22.9899 278.702 23.3043C278.935 23.6142 279.106 23.9651 279.215 24.3571C279.329 24.7444 279.386 25.1432 279.386 25.5533C279.386 26.0227 279.32 26.4625 279.188 26.8727C279.055 27.2828 278.857 27.6429 278.593 27.9528C278.333 28.2627 278.012 28.5042 277.629 28.6774C277.246 28.8505 276.802 28.9371 276.296 28.9371C275.758 28.9371 275.289 28.8278 274.888 28.609C274.487 28.3857 274.154 28.0895 273.89 27.7203C273.625 27.3512 273.427 26.941 273.295 26.4899C273.163 26.0387 273.097 25.5807 273.097 25.1158V24.5211C273.097 23.8193 273.167 23.1311 273.309 22.4567C273.45 21.7822 273.694 21.1715 274.04 20.6246C274.391 20.0778 274.876 19.6425 275.496 19.319C276.116 18.9954 276.907 18.8336 277.868 18.8336ZM282.735 23.2018H283.638C284.08 23.2018 284.444 23.1289 284.732 22.983C285.023 22.8326 285.24 22.6298 285.381 22.3746C285.527 22.1149 285.6 21.8232 285.6 21.4996C285.6 21.1168 285.536 20.7955 285.408 20.5358C285.281 20.276 285.089 20.08 284.834 19.9479C284.579 19.8157 284.255 19.7496 283.863 19.7496C283.508 19.7496 283.193 19.8203 282.92 19.9615C282.651 20.0983 282.439 20.2942 282.284 20.5494C282.134 20.8046 282.059 21.1054 282.059 21.4518H280.794C280.794 20.9459 280.922 20.4856 281.177 20.0709C281.432 19.6562 281.79 19.3258 282.25 19.0797C282.715 18.8336 283.253 18.7106 283.863 18.7106C284.465 18.7106 284.991 18.8177 285.443 19.0319C285.894 19.2415 286.245 19.5559 286.495 19.9752C286.746 20.3899 286.871 20.9072 286.871 21.527C286.871 21.7776 286.812 22.0465 286.693 22.3336C286.58 22.6162 286.4 22.8805 286.153 23.1266C285.912 23.3727 285.597 23.5755 285.21 23.735C284.823 23.8899 284.358 23.9674 283.816 23.9674H282.735V23.2018ZM282.735 24.2408V23.4821H283.816C284.449 23.4821 284.973 23.5573 285.388 23.7076C285.803 23.858 286.128 24.0586 286.365 24.3092C286.607 24.5599 286.776 24.8356 286.871 25.1364C286.971 25.4326 287.022 25.7288 287.022 26.025C287.022 26.4899 286.942 26.9023 286.782 27.2623C286.627 27.6224 286.406 27.9277 286.119 28.1783C285.837 28.429 285.504 28.6181 285.121 28.7457C284.738 28.8733 284.321 28.9371 283.87 28.9371C283.437 28.9371 283.029 28.8756 282.647 28.7526C282.268 28.6295 281.933 28.4518 281.642 28.2194C281.35 27.9824 281.122 27.693 280.958 27.3512C280.794 27.0048 280.712 26.6106 280.712 26.1686H281.977C281.977 26.5149 282.052 26.818 282.202 27.0778C282.357 27.3375 282.576 27.5403 282.859 27.6862C283.146 27.8274 283.483 27.8981 283.87 27.8981C284.258 27.8981 284.59 27.832 284.868 27.6998C285.151 27.5631 285.367 27.358 285.518 27.0846C285.673 26.8112 285.75 26.4671 285.75 26.0524C285.75 25.6377 285.664 25.2981 285.49 25.0338C285.317 24.7649 285.071 24.5667 284.752 24.4391C284.438 24.3069 284.066 24.2408 283.638 24.2408H282.735ZM288.655 21.2877V20.7614C288.655 20.3831 288.737 20.039 288.901 19.7291C289.066 19.4192 289.3 19.1709 289.606 18.984C289.911 18.7972 290.273 18.7037 290.693 18.7037C291.121 18.7037 291.485 18.7972 291.786 18.984C292.092 19.1709 292.326 19.4192 292.49 19.7291C292.654 20.039 292.736 20.3831 292.736 20.7614V21.2877C292.736 21.6569 292.654 21.9964 292.49 22.3063C292.331 22.6162 292.098 22.8645 291.793 23.0514C291.492 23.2382 291.13 23.3317 290.706 23.3317C290.282 23.3317 289.915 23.2382 289.606 23.0514C289.3 22.8645 289.066 22.6162 288.901 22.3063C288.737 21.9964 288.655 21.6569 288.655 21.2877ZM289.606 20.7614V21.2877C289.606 21.4974 289.644 21.6956 289.722 21.8824C289.804 22.0693 289.927 22.222 290.091 22.3405C290.255 22.4544 290.46 22.5114 290.706 22.5114C290.952 22.5114 291.155 22.4544 291.315 22.3405C291.474 22.222 291.593 22.0693 291.67 21.8824C291.748 21.6956 291.786 21.4974 291.786 21.2877V20.7614C291.786 20.5472 291.745 20.3466 291.663 20.1598C291.586 19.9684 291.465 19.8157 291.301 19.7018C291.141 19.5833 290.939 19.524 290.693 19.524C290.451 19.524 290.248 19.5833 290.084 19.7018C289.925 19.8157 289.804 19.9684 289.722 20.1598C289.644 20.3466 289.606 20.5472 289.606 20.7614ZM293.502 26.8932V26.36C293.502 25.9863 293.584 25.6445 293.748 25.3346C293.912 25.0247 294.147 24.7763 294.452 24.5895C294.758 24.4026 295.12 24.3092 295.539 24.3092C295.968 24.3092 296.332 24.4026 296.633 24.5895C296.938 24.7763 297.173 25.0247 297.337 25.3346C297.501 25.6445 297.583 25.9863 297.583 26.36V26.8932C297.583 27.2669 297.501 27.6087 297.337 27.9186C297.178 28.2285 296.945 28.4768 296.64 28.6637C296.339 28.8505 295.977 28.944 295.553 28.944C295.129 28.944 294.764 28.8505 294.459 28.6637C294.154 28.4768 293.917 28.2285 293.748 27.9186C293.584 27.6087 293.502 27.2669 293.502 26.8932ZM294.452 26.36V26.8932C294.452 27.1028 294.491 27.3033 294.568 27.4948C294.651 27.6816 294.774 27.8343 294.938 27.9528C295.102 28.0667 295.307 28.1237 295.553 28.1237C295.799 28.1237 296.002 28.0667 296.161 27.9528C296.325 27.8343 296.446 27.6816 296.524 27.4948C296.601 27.3079 296.64 27.1074 296.64 26.8932V26.36C296.64 26.1458 296.599 25.9453 296.517 25.7584C296.439 25.5716 296.318 25.4212 296.154 25.3073C295.995 25.1888 295.79 25.1295 295.539 25.1295C295.298 25.1295 295.095 25.1888 294.931 25.3073C294.771 25.4212 294.651 25.5716 294.568 25.7584C294.491 25.9453 294.452 26.1458 294.452 26.36ZM295.854 20.2623L290.993 28.0416L290.282 27.5905L295.143 19.8112L295.854 20.2623Z" fill="white"/>
<g filter="url(#filter2_d_1_410)">
<path fill-rule="evenodd" clip-rule="evenodd" d="M179.869 61.9991H42.5596H37.7278H33.7278V65.9991V66.2122V70.2122H37.7278H42.5596H179.869C182.079 70.2122 183.869 68.4213 183.869 66.2122V65.9991C183.869 63.7899 182.079 61.9991 179.869 61.9991Z" fill="#29CB97"/>
</g>
<path d="M202.463 65.4896V66.5286H195.271V65.7835L199.729 58.886H200.761L199.653 60.8821L196.707 65.4896H202.463ZM201.075 58.886V68.8392H199.811V58.886H201.075ZM210.044 58.886V59.597L205.922 68.8392H204.589L208.704 59.9251H203.317V58.886H210.044ZM211.377 61.3265V60.8001C211.377 60.4219 211.459 60.0778 211.623 59.7679C211.787 59.458 212.022 59.2096 212.327 59.0228C212.632 58.8359 212.995 58.7425 213.414 58.7425C213.842 58.7425 214.207 58.8359 214.508 59.0228C214.813 59.2096 215.048 59.458 215.212 59.7679C215.376 60.0778 215.458 60.4219 215.458 60.8001V61.3265C215.458 61.6956 215.376 62.0351 215.212 62.345C215.052 62.6549 214.82 62.9033 214.515 63.0901C214.214 63.277 213.852 63.3704 213.428 63.3704C213.004 63.3704 212.637 63.277 212.327 63.0901C212.022 62.9033 211.787 62.6549 211.623 62.345C211.459 62.0351 211.377 61.6956 211.377 61.3265ZM212.327 60.8001V61.3265C212.327 61.5361 212.366 61.7344 212.443 61.9212C212.525 62.1081 212.648 62.2607 212.812 62.3792C212.977 62.4931 213.182 62.5501 213.428 62.5501C213.674 62.5501 213.877 62.4931 214.036 62.3792C214.196 62.2607 214.314 62.1081 214.392 61.9212C214.469 61.7344 214.508 61.5361 214.508 61.3265V60.8001C214.508 60.5859 214.467 60.3854 214.385 60.1985C214.307 60.0071 214.187 59.8545 214.022 59.7405C213.863 59.622 213.66 59.5628 213.414 59.5628C213.173 59.5628 212.97 59.622 212.806 59.7405C212.646 59.8545 212.525 60.0071 212.443 60.1985C212.366 60.3854 212.327 60.5859 212.327 60.8001ZM216.224 66.9319V66.3987C216.224 66.025 216.306 65.6832 216.47 65.3734C216.634 65.0635 216.868 64.8151 217.174 64.6282C217.479 64.4414 217.841 64.348 218.261 64.348C218.689 64.348 219.054 64.4414 219.354 64.6282C219.66 64.8151 219.895 65.0635 220.059 65.3734C220.223 65.6832 220.305 66.025 220.305 66.3987V66.9319C220.305 67.3056 220.223 67.6474 220.059 67.9573C219.899 68.2672 219.667 68.5156 219.361 68.7025C219.061 68.8893 218.698 68.9827 218.274 68.9827C217.851 68.9827 217.486 68.8893 217.181 68.7025C216.875 68.5156 216.638 68.2672 216.47 67.9573C216.306 67.6474 216.224 67.3056 216.224 66.9319ZM217.174 66.3987V66.9319C217.174 67.1416 217.213 67.3421 217.29 67.5335C217.372 67.7204 217.495 67.873 217.659 67.9915C217.823 68.1054 218.028 68.1624 218.274 68.1624C218.521 68.1624 218.723 68.1054 218.883 67.9915C219.047 67.873 219.168 67.7204 219.245 67.5335C219.323 67.3467 219.361 67.1461 219.361 66.9319V66.3987C219.361 66.1845 219.32 65.984 219.238 65.7972C219.161 65.6103 219.04 65.4599 218.876 65.346C218.716 65.2275 218.511 65.1683 218.261 65.1683C218.019 65.1683 217.816 65.2275 217.652 65.346C217.493 65.4599 217.372 65.6103 217.29 65.7972C217.213 65.984 217.174 66.1845 217.174 66.3987ZM218.575 60.3011L213.715 68.0804L213.004 67.6292L217.864 59.8499L218.575 60.3011Z" fill="white"/>
<g filter="url(#filter3_d_1_410)">
<path fill-rule="evenodd" clip-rule="evenodd" d="M224.029 102.038H42.5596H37.7278H33.7278V106.038V106.251V110.251H37.7278H42.5596H224.029C226.238 110.251 228.029 108.46 228.029 106.251V106.038C228.029 103.829 226.238 102.038 224.029 102.038Z" fill="#FEC400"/>
</g>
<path d="M241.495 104.141L240.484 103.881L240.983 98.9248H246.089V100.094H242.056L241.755 102.801C241.937 102.696 242.168 102.598 242.446 102.507C242.728 102.416 243.052 102.37 243.416 102.37C243.877 102.37 244.289 102.45 244.654 102.609C245.018 102.764 245.328 102.988 245.583 103.279C245.843 103.571 246.041 103.922 246.178 104.332C246.315 104.742 246.383 105.2 246.383 105.706C246.383 106.185 246.317 106.624 246.185 107.025C246.057 107.426 245.864 107.777 245.604 108.078C245.344 108.374 245.016 108.604 244.619 108.769C244.227 108.933 243.765 109.015 243.232 109.015C242.831 109.015 242.45 108.96 242.09 108.851C241.735 108.737 241.416 108.566 241.133 108.338C240.855 108.105 240.627 107.818 240.449 107.477C240.276 107.13 240.167 106.725 240.121 106.26H241.324C241.379 106.633 241.489 106.948 241.653 107.203C241.817 107.458 242.031 107.652 242.295 107.784C242.564 107.912 242.876 107.976 243.232 107.976C243.532 107.976 243.799 107.923 244.031 107.818C244.264 107.714 244.46 107.563 244.619 107.367C244.779 107.171 244.9 106.934 244.982 106.656C245.068 106.378 245.112 106.066 245.112 105.72C245.112 105.405 245.068 105.114 244.982 104.845C244.895 104.576 244.765 104.341 244.592 104.141C244.423 103.94 244.216 103.785 243.97 103.676C243.724 103.562 243.441 103.505 243.122 103.505C242.698 103.505 242.377 103.562 242.158 103.676C241.944 103.79 241.723 103.945 241.495 104.141ZM254.292 107.839V108.878H247.778V107.969L251.038 104.339C251.439 103.892 251.749 103.514 251.968 103.204C252.191 102.89 252.346 102.609 252.433 102.363C252.524 102.113 252.57 101.857 252.57 101.598C252.57 101.27 252.501 100.973 252.365 100.709C252.232 100.44 252.036 100.226 251.777 100.066C251.517 99.9069 251.202 99.8271 250.833 99.8271C250.391 99.8271 250.022 99.9137 249.726 100.087C249.434 100.256 249.215 100.493 249.07 100.798C248.924 101.103 248.851 101.454 248.851 101.851H247.586C247.586 101.29 247.709 100.777 247.955 100.312C248.201 99.8477 248.566 99.4785 249.049 99.2051C249.532 98.9271 250.127 98.7881 250.833 98.7881C251.462 98.7881 252 98.8997 252.447 99.123C252.893 99.3418 253.235 99.6517 253.472 100.053C253.713 100.449 253.834 100.914 253.834 101.447C253.834 101.739 253.784 102.035 253.684 102.336C253.588 102.632 253.454 102.928 253.281 103.225C253.112 103.521 252.914 103.812 252.686 104.1C252.462 104.387 252.223 104.669 251.968 104.947L249.302 107.839H254.292ZM255.536 101.365V100.839C255.536 100.461 255.618 100.117 255.782 99.8066C255.947 99.4967 256.181 99.2484 256.487 99.0615C256.792 98.8747 257.154 98.7812 257.573 98.7812C258.002 98.7812 258.366 98.8747 258.667 99.0615C258.973 99.2484 259.207 99.4967 259.371 99.8066C259.535 100.117 259.617 100.461 259.617 100.839V101.365C259.617 101.734 259.535 102.074 259.371 102.384C259.212 102.694 258.979 102.942 258.674 103.129C258.373 103.316 258.011 103.409 257.587 103.409C257.163 103.409 256.796 103.316 256.487 103.129C256.181 102.942 255.947 102.694 255.782 102.384C255.618 102.074 255.536 101.734 255.536 101.365ZM256.487 100.839V101.365C256.487 101.575 256.525 101.773 256.603 101.96C256.685 102.147 256.808 102.299 256.972 102.418C257.136 102.532 257.341 102.589 257.587 102.589C257.833 102.589 258.036 102.532 258.196 102.418C258.355 102.299 258.474 102.147 258.551 101.96C258.628 101.773 258.667 101.575 258.667 101.365V100.839C258.667 100.625 258.626 100.424 258.544 100.237C258.467 100.046 258.346 99.8932 258.182 99.7793C258.022 99.6608 257.82 99.6016 257.573 99.6016C257.332 99.6016 257.129 99.6608 256.965 99.7793C256.806 99.8932 256.685 100.046 256.603 100.237C256.525 100.424 256.487 100.625 256.487 100.839ZM260.383 106.971V106.438C260.383 106.064 260.465 105.722 260.629 105.412C260.793 105.102 261.028 104.854 261.333 104.667C261.639 104.48 262.001 104.387 262.42 104.387C262.849 104.387 263.213 104.48 263.514 104.667C263.819 104.854 264.054 105.102 264.218 105.412C264.382 105.722 264.464 106.064 264.464 106.438V106.971C264.464 107.344 264.382 107.686 264.218 107.996C264.059 108.306 263.826 108.554 263.521 108.741C263.22 108.928 262.858 109.021 262.434 109.021C262.01 109.021 261.645 108.928 261.34 108.741C261.035 108.554 260.798 108.306 260.629 107.996C260.465 107.686 260.383 107.344 260.383 106.971ZM261.333 106.438V106.971C261.333 107.18 261.372 107.381 261.449 107.572C261.531 107.759 261.655 107.912 261.819 108.03C261.983 108.144 262.188 108.201 262.434 108.201C262.68 108.201 262.883 108.144 263.042 108.03C263.206 107.912 263.327 107.759 263.405 107.572C263.482 107.385 263.521 107.185 263.521 106.971V106.438C263.521 106.223 263.48 106.023 263.398 105.836C263.32 105.649 263.199 105.499 263.035 105.385C262.876 105.266 262.671 105.207 262.42 105.207C262.179 105.207 261.976 105.266 261.812 105.385C261.652 105.499 261.531 105.649 261.449 105.836C261.372 106.023 261.333 106.223 261.333 106.438ZM262.735 100.34L257.874 108.119L257.163 107.668L262.024 99.8887L262.735 100.34Z" fill="white"/>
<defs>
<filter id="filter0_d_1_410" x="23.7278" y="137.076" width="302.62" height="28.2131" filterUnits="userSpaceOnUse" color-interpolation-filters="sRGB">
<feFlood flood-opacity="0" result="BackgroundImageFix"/>
<feColorMatrix in="SourceAlpha" type="matrix" values="0 0 0 0 0 0 0 0 0 0 0 0 0 0 0 0 0 0 127 0" result="hardAlpha"/>
<feOffset dy="5"/>
<feGaussianBlur stdDeviation="5"/>
<feColorMatrix type="matrix" values="0 0 0 0 0 0 0 0 0 0 0 0 0 0 0 0 0 0 0.1 0"/>
<feBlend mode="normal" in2="BackgroundImageFix" result="effect1_dropShadow_1_410"/>
<feBlend mode="normal" in="SourceGraphic" in2="effect1_dropShadow_1_410" result="shape"/>
</filter>
<filter id="filter1_d_1_410" x="23.7278" y="16.9601" width="247.42" height="28.2131" filterUnits="userSpaceOnUse" color-interpolation-filters="sRGB">
<feFlood flood-opacity="0" result="BackgroundImageFix"/>
<feColorMatrix in="SourceAlpha" type="matrix" values="0 0 0 0 0 0 0 0 0 0 0 0 0 0 0 0 0 0 127 0" result="hardAlpha"/>
<feOffset dy="5"/>
<feGaussianBlur stdDeviation="5"/>
<feColorMatrix type="matrix" values="0 0 0 0 0 0 0 0 0 0 0 0 0 0 0 0 0 0 0.1 0"/>
<feBlend mode="normal" in2="BackgroundImageFix" result="effect1_dropShadow_1_410"/>
<feBlend mode="normal" in="SourceGraphic" in2="effect1_dropShadow_1_410" result="shape"/>
</filter>
<filter id="filter2_d_1_410" x="23.7278" y="56.9991" width="170.142" height="28.2131" filterUnits="userSpaceOnUse" color-interpolation-filters="sRGB">
<feFlood flood-opacity="0" result="BackgroundImageFix"/>
<feColorMatrix in="SourceAlpha" type="matrix" values="0 0 0 0 0 0 0 0 0 0 0 0 0 0 0 0 0 0 127 0" result="hardAlpha"/>
<feOffset dy="5"/>
<feGaussianBlur stdDeviation="5"/>
<feColorMatrix type="matrix" values="0 0 0 0 0 0 0 0 0 0 0 0 0 0 0 0 0 0 0.1 0"/>
<feBlend mode="normal" in2="BackgroundImageFix" result="effect1_dropShadow_1_410"/>
<feBlend mode="normal" in="SourceGraphic" in2="effect1_dropShadow_1_410" result="shape"/>
</filter>
<filter id="filter3_d_1_410" x="23.7278" y="97.0378" width="214.301" height="28.2131" filterUnits="userSpaceOnUse" color-interpolation-filters="sRGB">
<feFlood flood-opacity="0" result="BackgroundImageFix"/>
<feColorMatrix in="SourceAlpha" type="matrix" values="0 0 0 0 0 0 0 0 0 0 0 0 0 0 0 0 0 0 127 0" result="hardAlpha"/>
<feOffset dy="5"/>
<feGaussianBlur stdDeviation="5"/>
<feColorMatrix type="matrix" values="0 0 0 0 0 0 0 0 0 0 0 0 0 0 0 0 0 0 0.1 0"/>
<feBlend mode="normal" in2="BackgroundImageFix" result="effect1_dropShadow_1_410"/>
<feBlend mode="normal" in="SourceGraphic" in2="effect1_dropShadow_1_410" result="shape"/>
</filter>
</defs>
</svg>
