<svg width="300" height="200" viewBox="0 0 300 200" fill="none" xmlns="http://www.w3.org/2000/svg">
<path d="M299.623 149.423C299.623 109.815 283.872 71.8286 255.833 43.8211C227.795 15.8137 189.767 0.0792266 150.115 0.0792236C110.463 0.0792206 72.4348 15.8136 44.3965 43.8211C16.3582 71.8285 0.606512 109.815 0.606506 149.423H51.4394C51.4394 123.282 61.8355 98.2108 80.3408 79.7259C98.846 61.2409 123.945 50.8562 150.115 50.8562C176.285 50.8562 201.384 61.2409 219.889 79.7259C238.394 98.2108 248.79 123.282 248.79 149.423H299.623Z" fill="#2B2B36"/>
<path d="M255.833 43.8211C234.924 22.9349 208.284 8.7113 179.283 2.94882C150.281 -2.81365 120.22 0.143869 92.9005 11.4474C65.5814 22.7509 42.2314 41.8927 25.8032 66.4522C9.37501 91.0117 0.606502 119.886 0.606506 149.423H51.4394C51.4394 129.929 57.2266 110.872 68.0692 94.6624C78.9118 78.4531 94.3228 65.8195 112.353 58.3592C130.384 50.8989 150.224 48.9469 169.366 52.7502C188.507 56.5534 206.089 65.941 219.889 79.7259L255.833 43.8211Z" fill="#0E6BF7"/>
<line x1="1.5" y1="-1.5" x2="84.3772" y2="-1.5" transform="matrix(0.707495 -0.706718 0.707495 0.706718 205.106 94.4922)" stroke="#A9DFD8" stroke-width="3" stroke-linecap="round"/>
<path d="M110.254 113.591C108.887 113.591 107.67 113.369 106.605 112.925C105.545 112.475 104.714 111.863 104.11 111.087C103.507 110.312 103.205 109.433 103.205 108.451C103.205 107.693 103.376 106.998 103.72 106.364C104.069 105.725 104.542 105.196 105.14 104.775C105.738 104.349 106.407 104.077 107.146 103.959V103.834C106.176 103.639 105.389 103.168 104.785 102.423C104.181 101.671 103.879 100.798 103.879 99.8037C103.879 98.8626 104.155 98.0252 104.705 97.2913C105.255 96.5514 106.01 95.9714 106.969 95.5512C107.934 95.1251 109.029 94.912 110.254 94.912C111.479 94.912 112.571 95.1251 113.53 95.5512C114.494 95.9773 115.252 96.5603 115.802 97.3001C116.353 98.034 116.631 98.8686 116.637 99.8037C116.631 100.804 116.323 101.677 115.714 102.423C115.104 103.168 114.323 103.639 113.37 103.834V103.959C114.098 104.077 114.758 104.349 115.35 104.775C115.947 105.196 116.421 105.725 116.77 106.364C117.125 106.998 117.306 107.693 117.312 108.451C117.306 109.433 117.001 110.312 116.397 111.087C115.793 111.863 114.959 112.475 113.894 112.925C112.834 113.369 111.621 113.591 110.254 113.591ZM110.254 110.768C110.863 110.768 111.396 110.658 111.852 110.439C112.307 110.214 112.663 109.907 112.917 109.516C113.177 109.12 113.308 108.664 113.308 108.149C113.308 107.622 113.175 107.158 112.908 106.755C112.642 106.347 112.281 106.027 111.825 105.796C111.369 105.559 110.846 105.441 110.254 105.441C109.668 105.441 109.144 105.559 108.682 105.796C108.221 106.027 107.857 106.347 107.59 106.755C107.33 107.158 107.2 107.622 107.2 108.149C107.2 108.664 107.327 109.12 107.581 109.516C107.836 109.907 108.194 110.214 108.656 110.439C109.117 110.658 109.65 110.768 110.254 110.768ZM110.254 102.645C110.763 102.645 111.215 102.541 111.612 102.334C112.009 102.127 112.319 101.84 112.544 101.473C112.769 101.106 112.882 100.683 112.882 100.203C112.882 99.7297 112.769 99.3154 112.544 98.9603C112.319 98.5993 112.012 98.3181 111.621 98.1169C111.23 97.9098 110.775 97.8062 110.254 97.8062C109.739 97.8062 109.283 97.9098 108.887 98.1169C108.49 98.3181 108.179 98.5993 107.954 98.9603C107.735 99.3154 107.626 99.7297 107.626 100.203C107.626 100.683 107.738 101.106 107.963 101.473C108.188 101.84 108.499 102.127 108.895 102.334C109.292 102.541 109.745 102.645 110.254 102.645ZM127.128 113.742C125.601 113.736 124.287 113.36 123.187 112.614C122.092 111.869 121.248 110.789 120.656 109.374C120.07 107.959 119.78 106.258 119.786 104.269C119.786 102.287 120.079 100.597 120.665 99.2C121.257 97.8032 122.1 96.7408 123.195 96.0129C124.296 95.279 125.607 94.912 127.128 94.912C128.649 94.912 129.957 95.279 131.052 96.0129C132.153 96.7468 132.999 97.8121 133.591 99.2089C134.183 100.6 134.476 102.287 134.47 104.269C134.47 106.264 134.174 107.968 133.582 109.383C132.997 110.797 132.156 111.878 131.061 112.623C129.966 113.369 128.655 113.742 127.128 113.742ZM127.128 110.555C128.17 110.555 129.001 110.031 129.623 108.983C130.244 107.936 130.552 106.364 130.546 104.269C130.546 102.89 130.404 101.742 130.12 100.825C129.842 99.9073 129.445 99.2178 128.93 98.7561C128.421 98.2945 127.821 98.0636 127.128 98.0636C126.093 98.0636 125.264 98.5815 124.642 99.6173C124.021 100.653 123.707 102.204 123.701 104.269C123.701 105.666 123.841 106.832 124.119 107.767C124.403 108.696 124.802 109.395 125.317 109.862C125.832 110.324 126.436 110.555 127.128 110.555ZM147.163 109.933V108.975C147.163 108.247 147.317 107.578 147.625 106.968C147.939 106.353 148.391 105.861 148.983 105.494C149.581 105.122 150.309 104.935 151.167 104.935C152.037 104.935 152.768 105.119 153.36 105.486C153.958 105.852 154.408 106.344 154.709 106.959C155.017 107.569 155.171 108.241 155.171 108.975V109.933C155.171 110.661 155.017 111.333 154.709 111.949C154.402 112.558 153.949 113.046 153.351 113.413C152.753 113.786 152.025 113.973 151.167 113.973C150.297 113.973 149.566 113.786 148.974 113.413C148.383 113.046 147.933 112.558 147.625 111.949C147.317 111.333 147.163 110.661 147.163 109.933ZM149.747 108.975V109.933C149.747 110.354 149.847 110.75 150.049 111.123C150.256 111.496 150.629 111.682 151.167 111.682C151.706 111.682 152.073 111.499 152.268 111.132C152.469 110.765 152.57 110.365 152.57 109.933V108.975C152.57 108.542 152.475 108.14 152.286 107.767C152.096 107.394 151.724 107.208 151.167 107.208C150.635 107.208 150.265 107.394 150.058 107.767C149.85 108.14 149.747 108.542 149.747 108.975ZM137.833 99.5285V98.5697C137.833 97.8358 137.99 97.164 138.303 96.5544C138.617 95.9389 139.07 95.4476 139.662 95.0807C140.259 94.7137 140.981 94.5303 141.828 94.5303C142.704 94.5303 143.438 94.7137 144.029 95.0807C144.621 95.4476 145.071 95.9389 145.379 96.5544C145.687 97.164 145.841 97.8358 145.841 98.5697V99.5285C145.841 100.262 145.684 100.934 145.37 101.544C145.062 102.153 144.609 102.642 144.012 103.009C143.42 103.37 142.692 103.55 141.828 103.55C140.964 103.55 140.233 103.367 139.635 103C139.043 102.627 138.593 102.139 138.285 101.535C137.984 100.925 137.833 100.256 137.833 99.5285ZM140.434 98.5697V99.5285C140.434 99.9605 140.535 100.36 140.736 100.727C140.943 101.094 141.307 101.277 141.828 101.277C142.372 101.277 142.742 101.094 142.937 100.727C143.139 100.36 143.239 99.9605 143.239 99.5285V98.5697C143.239 98.1376 143.145 97.7352 142.955 97.3623C142.766 96.9894 142.39 96.803 141.828 96.803C141.301 96.803 140.937 96.9924 140.736 97.3712C140.535 97.75 140.434 98.1495 140.434 98.5697ZM139.005 113.342L151.505 95.1606H153.831L141.331 113.342H139.005Z" fill="white"/>
</svg>
