<svg width="432" height="18" viewBox="0 0 432 18" fill="none" xmlns="http://www.w3.org/2000/svg">
<path d="M266.319 3.54211V4.25305L262.197 13.4952H260.864L264.979 4.58118H259.593V3.54211H266.319ZM269.361 8.75793L268.349 8.49817L268.849 3.54211H273.955V4.71106H269.922L269.621 7.41809C269.803 7.31327 270.033 7.21529 270.311 7.12415C270.594 7.033 270.918 6.98743 271.282 6.98743C271.742 6.98743 272.155 7.06718 272.519 7.22668C272.884 7.38163 273.194 7.60494 273.449 7.89661C273.709 8.18827 273.907 8.53918 274.044 8.94934C274.181 9.3595 274.249 9.8175 274.249 10.3234C274.249 10.8019 274.183 11.2417 274.051 11.6427C273.923 12.0437 273.729 12.3947 273.47 12.6954C273.21 12.9917 272.882 13.2218 272.485 13.3859C272.093 13.5499 271.631 13.632 271.098 13.632C270.696 13.632 270.316 13.5773 269.956 13.4679C269.6 13.354 269.281 13.1831 268.999 12.9552C268.721 12.7228 268.493 12.4357 268.315 12.0939C268.142 11.7475 268.033 11.3419 267.987 10.8771H269.19C269.245 11.2508 269.354 11.5652 269.518 11.8204C269.682 12.0756 269.897 12.2693 270.161 12.4015C270.43 12.5291 270.742 12.5929 271.098 12.5929C271.398 12.5929 271.665 12.5405 271.897 12.4357C272.13 12.3309 272.326 12.1805 272.485 11.9845C272.645 11.7885 272.766 11.5516 272.848 11.2736C272.934 10.9956 272.977 10.6834 272.977 10.337C272.977 10.0226 272.934 9.73092 272.848 9.46204C272.761 9.19316 272.631 8.95846 272.458 8.75793C272.289 8.55741 272.082 8.40247 271.836 8.29309C271.59 8.17916 271.307 8.12219 270.988 8.12219C270.564 8.12219 270.243 8.17916 270.024 8.29309C269.81 8.40702 269.589 8.56197 269.361 8.75793ZM275.527 5.98254V5.45618C275.527 5.07792 275.609 4.73385 275.773 4.42395C275.937 4.11405 276.172 3.86568 276.477 3.67883C276.783 3.49198 277.145 3.39856 277.564 3.39856C277.993 3.39856 278.357 3.49198 278.658 3.67883C278.963 3.86568 279.198 4.11405 279.362 4.42395C279.526 4.73385 279.608 5.07792 279.608 5.45618V5.98254C279.608 6.35168 279.526 6.6912 279.362 7.0011C279.203 7.31099 278.97 7.55937 278.665 7.74622C278.364 7.93306 278.002 8.02649 277.578 8.02649C277.154 8.02649 276.787 7.93306 276.477 7.74622C276.172 7.55937 275.937 7.31099 275.773 7.0011C275.609 6.6912 275.527 6.35168 275.527 5.98254ZM276.477 5.45618V5.98254C276.477 6.19218 276.516 6.39042 276.594 6.57727C276.676 6.76412 276.799 6.91679 276.963 7.03528C277.127 7.14921 277.332 7.20618 277.578 7.20618C277.824 7.20618 278.027 7.14921 278.186 7.03528C278.346 6.91679 278.464 6.76412 278.542 6.57727C278.619 6.39042 278.658 6.19218 278.658 5.98254V5.45618C278.658 5.24198 278.617 5.04146 278.535 4.85461C278.458 4.66321 278.337 4.51054 278.173 4.39661C278.013 4.27812 277.81 4.21887 277.564 4.21887C277.323 4.21887 277.12 4.27812 276.956 4.39661C276.796 4.51054 276.676 4.66321 276.594 4.85461C276.516 5.04146 276.477 5.24198 276.477 5.45618ZM280.374 11.588V11.0548C280.374 10.6811 280.456 10.3393 280.62 10.0294C280.784 9.71952 281.019 9.47115 281.324 9.2843C281.629 9.09745 281.992 9.00403 282.411 9.00403C282.839 9.00403 283.204 9.09745 283.505 9.2843C283.81 9.47115 284.045 9.71952 284.209 10.0294C284.373 10.3393 284.455 10.6811 284.455 11.0548V11.588C284.455 11.9617 284.373 12.3035 284.209 12.6134C284.049 12.9233 283.817 13.1717 283.512 13.3585C283.211 13.5454 282.849 13.6388 282.425 13.6388C282.001 13.6388 281.636 13.5454 281.331 13.3585C281.026 13.1717 280.789 12.9233 280.62 12.6134C280.456 12.3035 280.374 11.9617 280.374 11.588ZM281.324 11.0548V11.588C281.324 11.7976 281.363 11.9982 281.44 12.1896C281.522 12.3764 281.645 12.5291 281.809 12.6476C281.974 12.7615 282.179 12.8185 282.425 12.8185C282.671 12.8185 282.874 12.7615 283.033 12.6476C283.197 12.5291 283.318 12.3764 283.395 12.1896C283.473 12.0027 283.512 11.8022 283.512 11.588V11.0548C283.512 10.8406 283.471 10.6401 283.389 10.4532C283.311 10.2664 283.19 10.116 283.026 10.0021C282.867 9.88359 282.662 9.82434 282.411 9.82434C282.169 9.82434 281.967 9.88359 281.803 10.0021C281.643 10.116 281.522 10.2664 281.44 10.4532C281.363 10.6401 281.324 10.8406 281.324 11.0548ZM282.725 4.95715L277.865 12.7365L277.154 12.2853L282.015 4.50598L282.725 4.95715Z" fill="#748AA1"/>
<path d="M350.154 3.48743V13.4952H348.889V5.06653L346.339 5.99622V4.85461L349.955 3.48743H350.154ZM360.12 7.72571V9.24329C360.12 10.059 360.047 10.7472 359.902 11.3077C359.756 11.8683 359.546 12.3195 359.273 12.6613C358.999 13.0031 358.669 13.2514 358.281 13.4064C357.899 13.5568 357.466 13.632 356.983 13.632C356.6 13.632 356.247 13.5841 355.923 13.4884C355.6 13.3927 355.308 13.24 355.048 13.0304C354.793 12.8162 354.574 12.5382 354.392 12.1964C354.21 11.8546 354.071 11.4399 353.975 10.9523C353.879 10.4646 353.831 9.89498 353.831 9.24329V7.72571C353.831 6.90995 353.904 6.22636 354.05 5.67493C354.2 5.12349 354.412 4.68144 354.686 4.34875C354.959 4.01152 355.287 3.76998 355.67 3.62415C356.058 3.47831 356.49 3.4054 356.969 3.4054C357.356 3.4054 357.712 3.45325 358.035 3.54895C358.364 3.6401 358.655 3.78821 358.91 3.99329C359.166 4.19381 359.382 4.46269 359.56 4.79993C359.742 5.13261 359.881 5.54049 359.977 6.02356C360.073 6.50663 360.12 7.07402 360.12 7.72571ZM358.849 9.44836V7.51379C358.849 7.06718 358.822 6.67525 358.767 6.33801C358.717 5.99622 358.642 5.70455 358.541 5.46301C358.441 5.22148 358.313 5.02551 358.158 4.87512C358.008 4.72473 357.833 4.61536 357.632 4.547C357.436 4.47408 357.215 4.43762 356.969 4.43762C356.668 4.43762 356.402 4.49459 356.169 4.60852C355.937 4.7179 355.741 4.89335 355.581 5.13489C355.426 5.37642 355.308 5.69316 355.226 6.08508C355.144 6.47701 355.103 6.95325 355.103 7.51379V9.44836C355.103 9.89498 355.128 10.2892 355.178 10.631C355.233 10.9728 355.312 11.269 355.417 11.5197C355.522 11.7657 355.65 11.9685 355.8 12.1281C355.95 12.2876 356.124 12.406 356.32 12.4835C356.52 12.5564 356.741 12.5929 356.983 12.5929C357.293 12.5929 357.564 12.5337 357.796 12.4152C358.029 12.2967 358.222 12.1121 358.377 11.8615C358.537 11.6062 358.655 11.2804 358.733 10.8839C358.81 10.4829 358.849 10.0044 358.849 9.44836ZM367.995 7.72571V9.24329C367.995 10.059 367.922 10.7472 367.777 11.3077C367.631 11.8683 367.421 12.3195 367.148 12.6613C366.874 13.0031 366.544 13.2514 366.156 13.4064C365.774 13.5568 365.341 13.632 364.858 13.632C364.475 13.632 364.122 13.5841 363.798 13.4884C363.475 13.3927 363.183 13.24 362.923 13.0304C362.668 12.8162 362.449 12.5382 362.267 12.1964C362.085 11.8546 361.946 11.4399 361.85 10.9523C361.754 10.4646 361.706 9.89498 361.706 9.24329V7.72571C361.706 6.90995 361.779 6.22636 361.925 5.67493C362.075 5.12349 362.287 4.68144 362.561 4.34875C362.834 4.01152 363.162 3.76998 363.545 3.62415C363.933 3.47831 364.365 3.4054 364.844 3.4054C365.231 3.4054 365.587 3.45325 365.91 3.54895C366.239 3.6401 366.53 3.78821 366.785 3.99329C367.041 4.19381 367.257 4.46269 367.435 4.79993C367.617 5.13261 367.756 5.54049 367.852 6.02356C367.948 6.50663 367.995 7.07402 367.995 7.72571ZM366.724 9.44836V7.51379C366.724 7.06718 366.697 6.67525 366.642 6.33801C366.592 5.99622 366.517 5.70455 366.416 5.46301C366.316 5.22148 366.188 5.02551 366.033 4.87512C365.883 4.72473 365.708 4.61536 365.507 4.547C365.311 4.47408 365.09 4.43762 364.844 4.43762C364.543 4.43762 364.277 4.49459 364.044 4.60852C363.812 4.7179 363.616 4.89335 363.456 5.13489C363.301 5.37642 363.183 5.69316 363.101 6.08508C363.019 6.47701 362.978 6.95325 362.978 7.51379V9.44836C362.978 9.89498 363.003 10.2892 363.053 10.631C363.108 10.9728 363.187 11.269 363.292 11.5197C363.397 11.7657 363.525 11.9685 363.675 12.1281C363.825 12.2876 363.999 12.406 364.195 12.4835C364.395 12.5564 364.616 12.5929 364.858 12.5929C365.168 12.5929 365.439 12.5337 365.671 12.4152C365.904 12.2967 366.097 12.1121 366.252 11.8615C366.412 11.6062 366.53 11.2804 366.608 10.8839C366.685 10.4829 366.724 10.0044 366.724 9.44836ZM369.513 5.98254V5.45618C369.513 5.07792 369.595 4.73385 369.759 4.42395C369.923 4.11405 370.158 3.86568 370.463 3.67883C370.768 3.49198 371.131 3.39856 371.55 3.39856C371.978 3.39856 372.343 3.49198 372.644 3.67883C372.949 3.86568 373.184 4.11405 373.348 4.42395C373.512 4.73385 373.594 5.07792 373.594 5.45618V5.98254C373.594 6.35168 373.512 6.6912 373.348 7.0011C373.188 7.31099 372.956 7.55937 372.651 7.74622C372.35 7.93306 371.988 8.02649 371.564 8.02649C371.14 8.02649 370.773 7.93306 370.463 7.74622C370.158 7.55937 369.923 7.31099 369.759 7.0011C369.595 6.6912 369.513 6.35168 369.513 5.98254ZM370.463 5.45618V5.98254C370.463 6.19218 370.502 6.39042 370.579 6.57727C370.661 6.76412 370.784 6.91679 370.948 7.03528C371.113 7.14921 371.318 7.20618 371.564 7.20618C371.81 7.20618 372.013 7.14921 372.172 7.03528C372.332 6.91679 372.45 6.76412 372.528 6.57727C372.605 6.39042 372.644 6.19218 372.644 5.98254V5.45618C372.644 5.24198 372.603 5.04146 372.521 4.85461C372.443 4.66321 372.323 4.51054 372.158 4.39661C371.999 4.27812 371.796 4.21887 371.55 4.21887C371.309 4.21887 371.106 4.27812 370.942 4.39661C370.782 4.51054 370.661 4.66321 370.579 4.85461C370.502 5.04146 370.463 5.24198 370.463 5.45618ZM374.36 11.588V11.0548C374.36 10.6811 374.442 10.3393 374.606 10.0294C374.77 9.71952 375.004 9.47115 375.31 9.2843C375.615 9.09745 375.977 9.00403 376.397 9.00403C376.825 9.00403 377.19 9.09745 377.49 9.2843C377.796 9.47115 378.031 9.71952 378.195 10.0294C378.359 10.3393 378.441 10.6811 378.441 11.0548V11.588C378.441 11.9617 378.359 12.3035 378.195 12.6134C378.035 12.9233 377.803 13.1717 377.497 13.3585C377.197 13.5454 376.834 13.6388 376.41 13.6388C375.987 13.6388 375.622 13.5454 375.317 13.3585C375.011 13.1717 374.774 12.9233 374.606 12.6134C374.442 12.3035 374.36 11.9617 374.36 11.588ZM375.31 11.0548V11.588C375.31 11.7976 375.349 11.9982 375.426 12.1896C375.508 12.3764 375.631 12.5291 375.795 12.6476C375.959 12.7615 376.164 12.8185 376.41 12.8185C376.656 12.8185 376.859 12.7615 377.019 12.6476C377.183 12.5291 377.304 12.3764 377.381 12.1896C377.459 12.0027 377.497 11.8022 377.497 11.588V11.0548C377.497 10.8406 377.456 10.6401 377.374 10.4532C377.297 10.2664 377.176 10.116 377.012 10.0021C376.852 9.88359 376.647 9.82434 376.397 9.82434C376.155 9.82434 375.952 9.88359 375.788 10.0021C375.629 10.116 375.508 10.2664 375.426 10.4532C375.349 10.6401 375.31 10.8406 375.31 11.0548ZM376.711 4.95715L371.851 12.7365L371.14 12.2853L376 4.50598L376.711 4.95715Z" fill="#748AA1"/>
<path d="M7.80298 7.72571V9.24329C7.80298 10.059 7.73006 10.7472 7.58423 11.3077C7.4384 11.8683 7.22876 12.3195 6.95532 12.6613C6.68188 13.0031 6.35148 13.2514 5.96411 13.4064C5.5813 13.5568 5.14836 13.632 4.66528 13.632C4.28247 13.632 3.92928 13.5841 3.60571 13.4884C3.28215 13.3927 2.99048 13.24 2.73071 13.0304C2.4755 12.8162 2.25675 12.5382 2.07446 12.1964C1.89217 11.8546 1.75317 11.4399 1.65747 10.9523C1.56177 10.4646 1.51392 9.89498 1.51392 9.24329V7.72571C1.51392 6.90995 1.58683 6.22636 1.73267 5.67493C1.88306 5.12349 2.09497 4.68144 2.36841 4.34875C2.64185 4.01152 2.96997 3.76998 3.35278 3.62415C3.74015 3.47831 4.1731 3.4054 4.65161 3.4054C5.03898 3.4054 5.39445 3.45325 5.71802 3.54895C6.04614 3.6401 6.33781 3.78821 6.59302 3.99329C6.84823 4.19381 7.0647 4.46269 7.24243 4.79993C7.42472 5.13261 7.56372 5.54049 7.65942 6.02356C7.75513 6.50663 7.80298 7.07402 7.80298 7.72571ZM6.53149 9.44836V7.51379C6.53149 7.06718 6.50415 6.67525 6.44946 6.33801C6.39933 5.99622 6.32414 5.70455 6.22388 5.46301C6.12362 5.22148 5.99601 5.02551 5.84106 4.87512C5.69067 4.72473 5.51522 4.61536 5.3147 4.547C5.11873 4.47408 4.89771 4.43762 4.65161 4.43762C4.35083 4.43762 4.08423 4.49459 3.85181 4.60852C3.61938 4.7179 3.42342 4.89335 3.26392 5.13489C3.10897 5.37642 2.99048 5.69316 2.90845 6.08508C2.82642 6.47701 2.7854 6.95325 2.7854 7.51379V9.44836C2.7854 9.89498 2.81047 10.2892 2.8606 10.631C2.91528 10.9728 2.99504 11.269 3.09985 11.5197C3.20467 11.7657 3.33228 11.9685 3.48267 12.1281C3.63306 12.2876 3.80623 12.406 4.0022 12.4835C4.20272 12.5564 4.42375 12.5929 4.66528 12.5929C4.97518 12.5929 5.24634 12.5337 5.47876 12.4152C5.71118 12.2967 5.90487 12.1121 6.05981 11.8615C6.21932 11.6062 6.33781 11.2804 6.41528 10.8839C6.49276 10.4829 6.53149 10.0044 6.53149 9.44836ZM9.32056 5.98254V5.45618C9.32056 5.07792 9.40259 4.73385 9.56665 4.42395C9.73071 4.11405 9.96541 3.86568 10.2708 3.67883C10.5761 3.49198 10.9384 3.39856 11.3577 3.39856C11.7861 3.39856 12.1506 3.49198 12.4514 3.67883C12.7568 3.86568 12.9915 4.11405 13.1555 4.42395C13.3196 4.73385 13.4016 5.07792 13.4016 5.45618V5.98254C13.4016 6.35168 13.3196 6.6912 13.1555 7.0011C12.996 7.31099 12.7636 7.55937 12.4583 7.74622C12.1575 7.93306 11.7952 8.02649 11.3713 8.02649C10.9475 8.02649 10.5806 7.93306 10.2708 7.74622C9.96541 7.55937 9.73071 7.31099 9.56665 7.0011C9.40259 6.6912 9.32056 6.35168 9.32056 5.98254ZM10.2708 5.45618V5.98254C10.2708 6.19218 10.3095 6.39042 10.387 6.57727C10.469 6.76412 10.592 6.91679 10.7561 7.03528C10.9202 7.14921 11.1252 7.20618 11.3713 7.20618C11.6174 7.20618 11.8202 7.14921 11.9797 7.03528C12.1392 6.91679 12.2577 6.76412 12.3352 6.57727C12.4127 6.39042 12.4514 6.19218 12.4514 5.98254V5.45618C12.4514 5.24198 12.4104 5.04146 12.3284 4.85461C12.2509 4.66321 12.1301 4.51054 11.9661 4.39661C11.8066 4.27812 11.6038 4.21887 11.3577 4.21887C11.1161 4.21887 10.9133 4.27812 10.7493 4.39661C10.5898 4.51054 10.469 4.66321 10.387 4.85461C10.3095 5.04146 10.2708 5.24198 10.2708 5.45618ZM14.1672 11.588V11.0548C14.1672 10.6811 14.2493 10.3393 14.4133 10.0294C14.5774 9.71952 14.8121 9.47115 15.1174 9.2843C15.4228 9.09745 15.7851 9.00403 16.2043 9.00403C16.6327 9.00403 16.9973 9.09745 17.2981 9.2843C17.6034 9.47115 17.8381 9.71952 18.0022 10.0294C18.1663 10.3393 18.2483 10.6811 18.2483 11.0548V11.588C18.2483 11.9617 18.1663 12.3035 18.0022 12.6134C17.8427 12.9233 17.6103 13.1717 17.3049 13.3585C17.0042 13.5454 16.6418 13.6388 16.218 13.6388C15.7942 13.6388 15.4296 13.5454 15.1243 13.3585C14.8189 13.1717 14.5819 12.9233 14.4133 12.6134C14.2493 12.3035 14.1672 11.9617 14.1672 11.588ZM15.1174 11.0548V11.588C15.1174 11.7976 15.1562 11.9982 15.2336 12.1896C15.3157 12.3764 15.4387 12.5291 15.6028 12.6476C15.7668 12.7615 15.9719 12.8185 16.218 12.8185C16.4641 12.8185 16.6669 12.7615 16.8264 12.6476C16.9905 12.5291 17.1112 12.3764 17.1887 12.1896C17.2662 12.0027 17.3049 11.8022 17.3049 11.588V11.0548C17.3049 10.8406 17.2639 10.6401 17.1819 10.4532C17.1044 10.2664 16.9836 10.116 16.8196 10.0021C16.6601 9.88359 16.455 9.82434 16.2043 9.82434C15.9628 9.82434 15.76 9.88359 15.5959 10.0021C15.4364 10.116 15.3157 10.2664 15.2336 10.4532C15.1562 10.6401 15.1174 10.8406 15.1174 11.0548ZM16.5188 4.95715L11.6584 12.7365L10.9475 12.2853L15.8079 4.50598L16.5188 4.95715Z" fill="#748AA1"/>
<path d="M94.1865 12.4562V13.4952H87.6719V12.5861L90.9326 8.95618C91.3337 8.50956 91.6436 8.13131 91.8623 7.82141C92.0856 7.50696 92.2406 7.22668 92.3271 6.98059C92.4183 6.72994 92.4639 6.47473 92.4639 6.21497C92.4639 5.88684 92.3955 5.59062 92.2588 5.32629C92.1266 5.05741 91.9307 4.84322 91.6709 4.68372C91.4111 4.52421 91.0967 4.44446 90.7275 4.44446C90.2855 4.44446 89.9163 4.53105 89.6201 4.70422C89.3285 4.87284 89.1097 5.10982 88.9639 5.41516C88.818 5.7205 88.7451 6.07141 88.7451 6.4679H87.4805C87.4805 5.90735 87.6035 5.39465 87.8496 4.92981C88.0957 4.46497 88.4603 4.09583 88.9434 3.82239C89.4264 3.54439 90.0212 3.4054 90.7275 3.4054C91.3564 3.4054 91.8942 3.51705 92.3408 3.74036C92.7874 3.95911 93.1292 4.269 93.3662 4.67004C93.6077 5.06653 93.7285 5.53137 93.7285 6.06458C93.7285 6.35624 93.6784 6.65247 93.5781 6.95325C93.4824 7.24947 93.348 7.54569 93.1748 7.84192C93.0062 8.13814 92.8079 8.42981 92.5801 8.71692C92.3568 9.00403 92.1175 9.28658 91.8623 9.56458L89.1963 12.4562H94.1865ZM97.1396 8.75793L96.1279 8.49817L96.627 3.54211H101.733V4.71106H97.7002L97.3994 7.41809C97.5817 7.31327 97.8118 7.21529 98.0898 7.12415C98.3724 7.033 98.696 6.98743 99.0605 6.98743C99.5208 6.98743 99.9333 7.06718 100.298 7.22668C100.662 7.38163 100.972 7.60494 101.228 7.89661C101.487 8.18827 101.686 8.53918 101.822 8.94934C101.959 9.3595 102.027 9.8175 102.027 10.3234C102.027 10.8019 101.961 11.2417 101.829 11.6427C101.701 12.0437 101.508 12.3947 101.248 12.6954C100.988 12.9917 100.66 13.2218 100.264 13.3859C99.8717 13.5499 99.4092 13.632 98.876 13.632C98.4749 13.632 98.0944 13.5773 97.7344 13.4679C97.3789 13.354 97.0599 13.1831 96.7773 12.9552C96.4993 12.7228 96.2715 12.4357 96.0938 12.0939C95.9206 11.7475 95.8112 11.3419 95.7656 10.8771H96.9688C97.0234 11.2508 97.1328 11.5652 97.2969 11.8204C97.4609 12.0756 97.6751 12.2693 97.9395 12.4015C98.2083 12.5291 98.5205 12.5929 98.876 12.5929C99.1768 12.5929 99.4434 12.5405 99.6758 12.4357C99.9082 12.3309 100.104 12.1805 100.264 11.9845C100.423 11.7885 100.544 11.5516 100.626 11.2736C100.713 10.9956 100.756 10.6834 100.756 10.337C100.756 10.0226 100.713 9.73092 100.626 9.46204C100.539 9.19316 100.41 8.95846 100.236 8.75793C100.068 8.55741 99.8604 8.40247 99.6143 8.29309C99.3682 8.17916 99.0856 8.12219 98.7666 8.12219C98.3428 8.12219 98.0215 8.17916 97.8027 8.29309C97.5885 8.40702 97.3675 8.56197 97.1396 8.75793ZM103.306 5.98254V5.45618C103.306 5.07792 103.388 4.73385 103.552 4.42395C103.716 4.11405 103.951 3.86568 104.256 3.67883C104.561 3.49198 104.924 3.39856 105.343 3.39856C105.771 3.39856 106.136 3.49198 106.437 3.67883C106.742 3.86568 106.977 4.11405 107.141 4.42395C107.305 4.73385 107.387 5.07792 107.387 5.45618V5.98254C107.387 6.35168 107.305 6.6912 107.141 7.0011C106.981 7.31099 106.749 7.55937 106.443 7.74622C106.143 7.93306 105.78 8.02649 105.356 8.02649C104.933 8.02649 104.566 7.93306 104.256 7.74622C103.951 7.55937 103.716 7.31099 103.552 7.0011C103.388 6.6912 103.306 6.35168 103.306 5.98254ZM104.256 5.45618V5.98254C104.256 6.19218 104.295 6.39042 104.372 6.57727C104.454 6.76412 104.577 6.91679 104.741 7.03528C104.905 7.14921 105.11 7.20618 105.356 7.20618C105.603 7.20618 105.805 7.14921 105.965 7.03528C106.124 6.91679 106.243 6.76412 106.32 6.57727C106.398 6.39042 106.437 6.19218 106.437 5.98254V5.45618C106.437 5.24198 106.396 5.04146 106.313 4.85461C106.236 4.66321 106.115 4.51054 105.951 4.39661C105.792 4.27812 105.589 4.21887 105.343 4.21887C105.101 4.21887 104.898 4.27812 104.734 4.39661C104.575 4.51054 104.454 4.66321 104.372 4.85461C104.295 5.04146 104.256 5.24198 104.256 5.45618ZM108.152 11.588V11.0548C108.152 10.6811 108.234 10.3393 108.398 10.0294C108.562 9.71952 108.797 9.47115 109.103 9.2843C109.408 9.09745 109.77 9.00403 110.189 9.00403C110.618 9.00403 110.982 9.09745 111.283 9.2843C111.589 9.47115 111.823 9.71952 111.987 10.0294C112.151 10.3393 112.233 10.6811 112.233 11.0548V11.588C112.233 11.9617 112.151 12.3035 111.987 12.6134C111.828 12.9233 111.595 13.1717 111.29 13.3585C110.989 13.5454 110.627 13.6388 110.203 13.6388C109.779 13.6388 109.415 13.5454 109.109 13.3585C108.804 13.1717 108.567 12.9233 108.398 12.6134C108.234 12.3035 108.152 11.9617 108.152 11.588ZM109.103 11.0548V11.588C109.103 11.7976 109.141 11.9982 109.219 12.1896C109.301 12.3764 109.424 12.5291 109.588 12.6476C109.752 12.7615 109.957 12.8185 110.203 12.8185C110.449 12.8185 110.652 12.7615 110.812 12.6476C110.976 12.5291 111.096 12.3764 111.174 12.1896C111.251 12.0027 111.29 11.8022 111.29 11.588V11.0548C111.29 10.8406 111.249 10.6401 111.167 10.4532C111.09 10.2664 110.969 10.116 110.805 10.0021C110.645 9.88359 110.44 9.82434 110.189 9.82434C109.948 9.82434 109.745 9.88359 109.581 10.0021C109.422 10.116 109.301 10.2664 109.219 10.4532C109.141 10.6401 109.103 10.8406 109.103 11.0548ZM110.504 4.95715L105.644 12.7365L104.933 12.2853L109.793 4.50598L110.504 4.95715Z" fill="#748AA1"/>
<path d="M175.375 8.75793L174.364 8.49817L174.863 3.54211H179.969V4.71106H175.936L175.635 7.41809C175.818 7.31327 176.048 7.21529 176.326 7.12415C176.608 7.033 176.932 6.98743 177.296 6.98743C177.757 6.98743 178.169 7.06718 178.534 7.22668C178.898 7.38163 179.208 7.60494 179.463 7.89661C179.723 8.18827 179.921 8.53918 180.058 8.94934C180.195 9.3595 180.263 9.8175 180.263 10.3234C180.263 10.8019 180.197 11.2417 180.065 11.6427C179.937 12.0437 179.744 12.3947 179.484 12.6954C179.224 12.9917 178.896 13.2218 178.5 13.3859C178.108 13.5499 177.645 13.632 177.112 13.632C176.711 13.632 176.33 13.5773 175.97 13.4679C175.615 13.354 175.296 13.1831 175.013 12.9552C174.735 12.7228 174.507 12.4357 174.33 12.0939C174.156 11.7475 174.047 11.3419 174.001 10.8771H175.205C175.259 11.2508 175.369 11.5652 175.533 11.8204C175.697 12.0756 175.911 12.2693 176.175 12.4015C176.444 12.5291 176.756 12.5929 177.112 12.5929C177.413 12.5929 177.679 12.5405 177.912 12.4357C178.144 12.3309 178.34 12.1805 178.5 11.9845C178.659 11.7885 178.78 11.5516 178.862 11.2736C178.948 10.9956 178.992 10.6834 178.992 10.337C178.992 10.0226 178.948 9.73092 178.862 9.46204C178.775 9.19316 178.645 8.95846 178.472 8.75793C178.304 8.55741 178.096 8.40247 177.85 8.29309C177.604 8.17916 177.321 8.12219 177.002 8.12219C176.579 8.12219 176.257 8.17916 176.039 8.29309C175.824 8.40702 175.603 8.56197 175.375 8.75793ZM187.899 7.72571V9.24329C187.899 10.059 187.826 10.7472 187.68 11.3077C187.534 11.8683 187.325 12.3195 187.051 12.6613C186.778 13.0031 186.447 13.2514 186.06 13.4064C185.677 13.5568 185.244 13.632 184.761 13.632C184.378 13.632 184.025 13.5841 183.702 13.4884C183.378 13.3927 183.086 13.24 182.827 13.0304C182.571 12.8162 182.353 12.5382 182.17 12.1964C181.988 11.8546 181.849 11.4399 181.753 10.9523C181.658 10.4646 181.61 9.89498 181.61 9.24329V7.72571C181.61 6.90995 181.683 6.22636 181.829 5.67493C181.979 5.12349 182.191 4.68144 182.464 4.34875C182.738 4.01152 183.066 3.76998 183.449 3.62415C183.836 3.47831 184.269 3.4054 184.748 3.4054C185.135 3.4054 185.49 3.45325 185.814 3.54895C186.142 3.6401 186.434 3.78821 186.689 3.99329C186.944 4.19381 187.161 4.46269 187.338 4.79993C187.521 5.13261 187.66 5.54049 187.755 6.02356C187.851 6.50663 187.899 7.07402 187.899 7.72571ZM186.627 9.44836V7.51379C186.627 7.06718 186.6 6.67525 186.545 6.33801C186.495 5.99622 186.42 5.70455 186.32 5.46301C186.22 5.22148 186.092 5.02551 185.937 4.87512C185.787 4.72473 185.611 4.61536 185.411 4.547C185.215 4.47408 184.994 4.43762 184.748 4.43762C184.447 4.43762 184.18 4.49459 183.948 4.60852C183.715 4.7179 183.519 4.89335 183.36 5.13489C183.205 5.37642 183.086 5.69316 183.004 6.08508C182.922 6.47701 182.881 6.95325 182.881 7.51379V9.44836C182.881 9.89498 182.906 10.2892 182.957 10.631C183.011 10.9728 183.091 11.269 183.196 11.5197C183.301 11.7657 183.428 11.9685 183.579 12.1281C183.729 12.2876 183.902 12.406 184.098 12.4835C184.299 12.5564 184.52 12.5929 184.761 12.5929C185.071 12.5929 185.342 12.5337 185.575 12.4152C185.807 12.2967 186.001 12.1121 186.156 11.8615C186.315 11.6062 186.434 11.2804 186.511 10.8839C186.589 10.4829 186.627 10.0044 186.627 9.44836ZM189.417 5.98254V5.45618C189.417 5.07792 189.499 4.73385 189.663 4.42395C189.827 4.11405 190.061 3.86568 190.367 3.67883C190.672 3.49198 191.034 3.39856 191.454 3.39856C191.882 3.39856 192.247 3.49198 192.547 3.67883C192.853 3.86568 193.087 4.11405 193.251 4.42395C193.416 4.73385 193.498 5.07792 193.498 5.45618V5.98254C193.498 6.35168 193.416 6.6912 193.251 7.0011C193.092 7.31099 192.86 7.55937 192.554 7.74622C192.253 7.93306 191.891 8.02649 191.467 8.02649C191.043 8.02649 190.677 7.93306 190.367 7.74622C190.061 7.55937 189.827 7.31099 189.663 7.0011C189.499 6.6912 189.417 6.35168 189.417 5.98254ZM190.367 5.45618V5.98254C190.367 6.19218 190.405 6.39042 190.483 6.57727C190.565 6.76412 190.688 6.91679 190.852 7.03528C191.016 7.14921 191.221 7.20618 191.467 7.20618C191.713 7.20618 191.916 7.14921 192.076 7.03528C192.235 6.91679 192.354 6.76412 192.431 6.57727C192.509 6.39042 192.547 6.19218 192.547 5.98254V5.45618C192.547 5.24198 192.506 5.04146 192.424 4.85461C192.347 4.66321 192.226 4.51054 192.062 4.39661C191.903 4.27812 191.7 4.21887 191.454 4.21887C191.212 4.21887 191.009 4.27812 190.845 4.39661C190.686 4.51054 190.565 4.66321 190.483 4.85461C190.405 5.04146 190.367 5.24198 190.367 5.45618ZM194.263 11.588V11.0548C194.263 10.6811 194.345 10.3393 194.509 10.0294C194.673 9.71952 194.908 9.47115 195.213 9.2843C195.519 9.09745 195.881 9.00403 196.3 9.00403C196.729 9.00403 197.093 9.09745 197.394 9.2843C197.699 9.47115 197.934 9.71952 198.098 10.0294C198.262 10.3393 198.344 10.6811 198.344 11.0548V11.588C198.344 11.9617 198.262 12.3035 198.098 12.6134C197.939 12.9233 197.706 13.1717 197.401 13.3585C197.1 13.5454 196.738 13.6388 196.314 13.6388C195.89 13.6388 195.526 13.5454 195.22 13.3585C194.915 13.1717 194.678 12.9233 194.509 12.6134C194.345 12.3035 194.263 11.9617 194.263 11.588ZM195.213 11.0548V11.588C195.213 11.7976 195.252 11.9982 195.33 12.1896C195.412 12.3764 195.535 12.5291 195.699 12.6476C195.863 12.7615 196.068 12.8185 196.314 12.8185C196.56 12.8185 196.763 12.7615 196.922 12.6476C197.086 12.5291 197.207 12.3764 197.285 12.1896C197.362 12.0027 197.401 11.8022 197.401 11.588V11.0548C197.401 10.8406 197.36 10.6401 197.278 10.4532C197.2 10.2664 197.08 10.116 196.916 10.0021C196.756 9.88359 196.551 9.82434 196.3 9.82434C196.059 9.82434 195.856 9.88359 195.692 10.0021C195.532 10.116 195.412 10.2664 195.33 10.4532C195.252 10.6401 195.213 10.8406 195.213 11.0548ZM196.615 4.95715L191.754 12.7365L191.043 12.2853L195.904 4.50598L196.615 4.95715Z" fill="#748AA1"/>
</svg>
