<svg width="43" height="43" viewBox="0 0 43 43" fill="none" xmlns="http://www.w3.org/2000/svg">
<mask id="mask0_1_329" style="mask-type:alpha" maskUnits="userSpaceOnUse" x="0" y="0" width="43" height="43">
<rect width="43" height="43" fill="#D9D9D9"/>
</mask>
<g mask="url(#mask0_1_329)">
<path d="M15.4085 40.3125L12.0043 34.5792L5.55431 33.1458L6.18139 26.5167L1.79181 21.5L6.18139 16.4833L5.55431 9.85417L12.0043 8.42083L15.4085 2.6875L21.5001 5.28542L27.5918 2.6875L30.996 8.42083L37.446 9.85417L36.8189 16.4833L41.2085 21.5L36.8189 26.5167L37.446 33.1458L30.996 34.5792L27.5918 40.3125L21.5001 37.7146L15.4085 40.3125ZM16.9314 35.7438L21.5001 33.7729L26.1585 35.7438L28.6668 31.4438L33.5939 30.2792L33.146 25.2625L36.4606 21.5L33.146 17.6479L33.5939 12.6313L28.6668 11.5563L26.0689 7.25625L21.5001 9.22708L16.8418 7.25625L14.3335 11.5563L9.40639 12.6313L9.85431 17.6479L6.53973 21.5L9.85431 25.2625L9.40639 30.3687L14.3335 31.4438L16.9314 35.7438ZM21.5001 30.4583C22.0078 30.4583 22.4333 30.2866 22.7767 29.9432C23.1201 29.5998 23.2918 29.1743 23.2918 28.6667C23.2918 28.159 23.1201 27.7335 22.7767 27.3901C22.4333 27.0467 22.0078 26.875 21.5001 26.875C20.9925 26.875 20.567 27.0467 20.2236 27.3901C19.8802 27.7335 19.7085 28.159 19.7085 28.6667C19.7085 29.1743 19.8802 29.5998 20.2236 29.9432C20.567 30.2866 20.9925 30.4583 21.5001 30.4583ZM19.7085 23.2917H23.2918V12.5417H19.7085V23.2917Z" fill="#5D3C00"/>
</g>
</svg>
